ISO-10303-21;
HEADER;
/* Generated by software containing ST-Developer
 * from STEP Tools, Inc. (www.steptools.com) 
 */
/* OPTION: using custom renumber hook */

FILE_DESCRIPTION(
/* description */ ('STEP AP242 Edition 2',
'CAx-IF Rec.Pracs.---Representation and Presentation of Product Manufa
cturing Information (PMI)---4.0---2014-10-13',
'CAx-IF Rec.Pracs.---3D Tessellated Geometry---0.4---2014-09-14','2;1',
'CAx-IF Rec.Pracs.---User Defined Attributes---1.5---2016-08-15'),
/* implementation_level */ '2;1');

FILE_NAME(
/* name */ 'Top',
/* time_stamp */ '2026-06-10T22:38:26Z',
/* author */ (''),
/* organization */ (''),
/* preprocessor_version */ 'ST-DEVELOPER v20',
/* originating_system */ 'ONSHAPE BY PTC INC, 1.216',
/* authorisation */ '  ');

FILE_SCHEMA (('AP242_MANAGED_MODEL_BASED_3D_ENGINEERING_MIM_LF { 1 0 10303 442 3 1 4 }'));
ENDSEC;

DATA;
#10=SHAPE_REPRESENTATION_RELATIONSHIP('','',#31,#11);
#11=TESSELLATED_SHAPE_REPRESENTATION('',(#29),#37);
#12=STYLED_ITEM('',(#14),#27);
#13=STYLED_ITEM('',(#15),#29);
#14=PRESENTATION_STYLE_ASSIGNMENT((#16));
#15=PRESENTATION_STYLE_ASSIGNMENT((#17));
#16=SURFACE_STYLE_USAGE(.BOTH.,#18);
#17=SURFACE_STYLE_USAGE(.BOTH.,#19);
#18=SURFACE_SIDE_STYLE('',(#20));
#19=SURFACE_SIDE_STYLE('',(#21));
#20=SURFACE_STYLE_FILL_AREA(#22);
#21=SURFACE_STYLE_FILL_AREA(#23);
#22=FILL_AREA_STYLE('',(#24));
#23=FILL_AREA_STYLE('',(#25));
#24=FILL_AREA_STYLE_COLOUR('',#26);
#25=FILL_AREA_STYLE_COLOUR('',#26);
#26=DRAUGHTING_PRE_DEFINED_COLOUR('white');
#27=COMPLEX_TRIANGULATED_FACE('ConvergentBody',#28,1464,((0.965925065662666,
-0.258821883782216,0.),(0.,0.,-1.),(0.965925065662666,-0.258821883782216,
0.),(0.,0.,1.),(1.,0.,0.),(0.,0.,-1.),(0.866026507124691,-0.499998088953755,
0.),(0.,0.,1.),(0.,0.,-1.),(0.,-1.,0.),(-1.,0.,0.),(0.866026507124691,-0.499998088953755,
0.),(0.,0.,-1.),(0.,0.,-1.),(0.965925065662666,0.258821883782216,0.),(0.,
0.,-1.),(-1.,0.,0.),(0.,1.,0.),(1.,0.,0.),(0.,0.,1.),(0.,0.,1.),(-1.,0.,
0.),(0.,-1.,0.),(0.,0.,1.),(0.965925065662666,0.258821883782216,0.),(0.,
0.,1.),(0.,1.,0.),(-1.,0.,0.),(0.965925065662666,0.258821883782216,0.),
(0.,0.,-1.),(0.965925065662666,0.258821883782216,0.),(0.,0.,1.),(0.866026507124691,
0.499998088953755,0.),(0.,0.,-1.),(0.866026507124691,0.499998088953755,
0.),(0.,0.,1.),(0.70710678118654,0.707106781186555,0.),(0.,0.,-1.),(0.70710678118654,
0.707106781186555,0.),(0.,0.,1.),(0.499998088953755,0.866026507124691,0.),
(0.,0.,-1.),(0.499998088953755,0.866026507124691,0.),(0.,0.,1.),(0.258821883782215,
0.965925065662666,0.),(0.,0.,-1.),(0.258821883782215,0.965925065662666,
0.),(0.,0.,1.),(1.47066674971618E-6,0.999999999998919,0.),(0.,0.,-1.),(1.47066674971618E-6,
0.999999999998919,0.),(0.,0.,1.),(-0.258824627891205,0.965924330368057,
0.),(0.,0.,-1.),(-0.258824627891205,0.965924330368057,0.),(0.,0.,1.),(-0.499995883179757,
0.866027780618667,0.),(0.,0.,-1.),(0.,0.,-1.),(-0.0654139310188552,0.997858215193251,
0.),(0.,0.,-1.),(0.499995883179761,0.866027780618665,0.),(0.,0.,-1.),(0.258824627891205,
0.965924330368057,0.),(-0.499995883179757,0.866027780618667,0.),(0.,0.,
1.),(0.,0.,1.),(-0.0654139310188552,0.997858215193251,0.),(0.,0.,1.),(0.258824627891205,
0.965924330368057,0.),(0.,0.,1.),(0.499995883179761,0.866027780618665,0.),
(-0.70710193141863,0.707111630921203,0.),(0.,0.,-1.),(0.,0.,-1.),(0.0654139310188552,
0.997858215193251,0.),(-0.70710193141863,0.707111630921203,0.),(0.,0.,1.),
(0.,0.,1.),(0.0654139310188552,0.997858215193251,0.),(-0.866026507124692,
0.499998088953754,0.),(0.,0.,-1.),(0.,0.,-1.),(0.258829455101638,0.965923036878089,
0.),(-0.866026507124692,0.499998088953754,0.),(0.,0.,1.),(0.,0.,1.),(0.258829455101638,
0.965923036878089,0.),(-0.965927956718452,0.258811094100923,0.),(0.,0.,
-1.),(0.,0.,-1.),(0.500008618785297,0.866020427669244,0.),(-0.965927956718452,
0.258811094100923,0.),(0.,0.,1.),(0.,0.,1.),(0.500008618785297,0.866020427669244,
0.),(-1.,0.,0.),(0.,0.,-1.),(0.,0.,-1.),(0.70710678118654,0.707106781186555,
0.),(-1.,0.,0.),(0.,0.,1.),(0.,0.,1.),(0.70710678118654,0.707106781186555,
0.),(-0.965927956718452,-0.258811094100923,0.),(0.,0.,-1.),(0.,0.,-1.),
(0.866020427669238,0.500008618785307,0.),(-0.965927956718452,-0.258811094100923,
0.),(0.,0.,1.),(0.,0.,1.),(0.866020427669238,0.500008618785307,0.),(-0.866026507124691,
-0.499998088953755,0.),(0.,0.,-1.),(0.,0.,-1.),(0.965923036878093,0.258829455101622,
0.),(-0.866026507124691,-0.499998088953755,0.),(0.,0.,1.),(0.,0.,1.),(0.965923036878093,
0.258829455101622,0.),(-0.707101931418625,-0.707111630921207,0.),(0.,0.,
-1.),(0.,0.,-1.),(0.997858215193252,0.0654139310188403,0.),(-0.707101931418625,
-0.707111630921207,0.),(0.,0.,1.),(0.,0.,1.),(0.997858215193252,0.0654139310188403,
0.),(-0.500004897682717,-0.866022576087538,0.),(0.,0.,-1.),(0.,0.,-1.),
(1.,0.,0.),(0.,1.,0.),(-0.500004897682717,-0.866022576087538,0.),(0.,0.,
1.),(0.,0.,1.),(0.,1.,0.),(1.,0.,0.),(-0.258823892829715,-0.965924527331443,
0.),(0.,0.,-1.),(-0.258823892829715,-0.965924527331443,0.),(0.,0.,1.),(1.4704215293407E-6,
-0.999999999998919,0.),(0.,0.,-1.),(1.4704215293407E-6,-0.999999999998919,
0.),(0.,0.,1.),(0.258821148309898,-0.965925262733896,0.),(0.,0.,-1.),(0.258821148309898,
-0.965925262733896,0.),(0.,0.,1.),(0.500007103287997,-0.86602130266036,
0.),(0.,0.,-1.),(0.500007103287997,-0.86602130266036,0.),(0.,0.,1.),(0.707106781186547,
-0.707106781186548,0.),(0.,0.,-1.),(0.707106781186547,-0.707106781186548,
0.),(0.,0.,1.),(0.,0.,-1.),(0.,-1.,0.),(1.,0.,0.),(1.,0.,0.),(0.,0.,1.),
(0.,-1.,0.),(0.,0.,-1.),(0.866026507124691,0.499998088953755,0.),(0.866026507124691,
0.499998088953755,0.),(0.,0.,1.),(0.,0.,1.),(-0.965925065662666,-0.258821883782214,
0.),(-0.965925065662666,-0.258821883782214,0.),(0.,0.,-1.),(-1.,0.,0.),
(0.,0.,1.),(-0.866026507124691,-0.499998088953755,0.),(0.,0.,-1.),(0.,0.,
1.),(0.,-1.,0.),(1.,0.,0.),(-0.866026507124691,-0.499998088953755,0.),(0.,
0.,1.),(0.,0.,1.),(-0.965925065662666,0.258821883782215,0.),(0.,0.,1.),
(1.,0.,0.),(0.,1.,0.),(-1.,0.,0.),(0.,0.,-1.),(0.,0.,-1.),(1.,0.,0.),(0.,
-1.,0.),(0.,0.,-1.),(-0.965925065662666,0.258821883782215,0.),(0.,0.,-1.),
(0.,1.,0.),(1.,0.,0.),(-0.965925065662666,0.258821883782215,0.),(0.,0.,
1.),(-0.965925065662666,0.258821883782215,0.),(0.,0.,-1.),(-0.866026507124692,
0.499998088953754,0.),(0.,0.,1.),(-0.866026507124692,0.499998088953754,
0.),(0.,0.,-1.),(-0.707106781186547,0.707106781186547,0.),(0.,0.,1.),(-0.707106781186547,
0.707106781186547,0.),(0.,0.,-1.),(-0.499998088953751,0.866026507124694,
0.),(0.,0.,1.),(-0.499998088953751,0.866026507124694,0.),(0.,0.,-1.),(-0.258821883782213,
0.965925065662666,0.),(0.,0.,1.),(-0.258821883782213,0.965925065662666,
0.),(0.,0.,-1.),(-1.47066675226476E-6,0.999999999998919,0.),(0.,0.,1.),
(-1.47066675226476E-6,0.999999999998919,0.),(0.,0.,-1.),(0.70710193141862,
0.707111630921212,0.),(0.,0.,1.),(0.,0.,1.),(-0.0654139310188552,0.997858215193251,
0.),(0.,0.,1.),(0.0654139310188552,0.997858215193251,0.),(0.70710193141862,
0.707111630921212,0.),(0.,0.,-1.),(0.,0.,-1.),(-0.0654139310188552,0.997858215193251,
0.),(0.,0.,-1.),(0.0654139310188552,0.997858215193251,0.),(0.866026507124691,
0.499998088953755,0.),(0.,0.,1.),(0.,0.,1.),(0.0654139310188552,0.997858215193251,
0.),(0.866026507124691,0.499998088953755,0.),(0.,0.,-1.),(0.,0.,-1.),(0.0654139310188552,
0.997858215193251,0.),(0.965927956718452,0.258811094100921,0.),(0.,0.,1.),
(0.,0.,1.),(-0.0654139310188552,0.997858215193251,0.),(0.965927956718452,
0.258811094100921,0.),(0.,0.,-1.),(0.,0.,-1.),(-0.0654139310188552,0.997858215193251,
0.),(1.,0.,0.),(0.,0.,1.),(1.,0.,0.),(0.,0.,-1.),(0.965927956718452,-0.258811094100921,
0.),(0.,0.,1.),(0.,0.,1.),(-0.258829455101638,0.965923036878089,0.),(0.965927956718452,
-0.258811094100921,0.),(0.,0.,-1.),(0.,0.,-1.),(-0.258829455101638,0.965923036878089,
0.),(0.866026507124691,-0.499998088953755,0.),(0.,0.,1.),(0.,0.,1.),(-0.500008618785297,
0.866020427669243,0.),(0.866026507124691,-0.499998088953755,0.),(0.,0.,
-1.),(0.,0.,-1.),(-0.500008618785297,0.866020427669243,0.),(0.707101931418624,
-0.707111630921209,0.),(0.,0.,1.),(0.,0.,1.),(-0.707106781186547,0.707106781186547,
0.),(0.707101931418624,-0.707111630921209,0.),(0.,0.,-1.),(0.,0.,-1.),(-0.707106781186547,
0.707106781186547,0.),(0.500004897682725,-0.866022576087533,0.),(0.,0.,
1.),(0.,0.,1.),(-0.866020427669243,0.500008618785297,0.),(0.500004897682725,
-0.866022576087533,0.),(0.,0.,-1.),(0.,0.,-1.),(-0.866020427669243,0.500008618785297,
0.),(0.258823892829708,-0.965924527331445,0.),(0.,0.,1.),(0.,0.,1.),(-0.965923036878089,
0.258829455101638,0.),(0.258823892829708,-0.965924527331445,0.),(0.,0.,
-1.),(0.,0.,-1.),(-0.965923036878089,0.258829455101638,0.),(-1.47042153186254E-6,
-0.999999999998919,0.),(0.,0.,1.),(0.,0.,1.),(-0.997858215193251,0.0654139310188552,
0.),(-1.47042153186254E-6,-0.999999999998919,0.),(0.,0.,-1.),(0.,0.,-1.),
(-0.997858215193251,0.0654139310188552,0.),(-0.258821148309892,-0.965925262733897,
0.),(0.,0.,1.),(-0.258821148309892,-0.965925262733897,0.),(0.,0.,-1.),(-0.500007103287998,
-0.866021302660359,0.),(0.,0.,1.),(0.,0.,1.),(-0.997858215193251,-0.0654139310188552,
0.),(-0.500007103287998,-0.866021302660359,0.),(0.,0.,-1.),(0.,0.,-1.),
(-0.997858215193251,-0.0654139310188552,0.),(-0.707106781186555,-0.70710678118654,
0.),(0.,0.,1.),(-0.707106781186555,-0.70710678118654,0.),(0.,0.,-1.),(0.,
0.,1.),(-0.997858215193251,0.0654139310188552,0.),(0.,0.,-1.),(-0.997858215193251,
0.0654139310188552,0.),(0.,0.,1.),(-0.866026507124692,0.499998088953754,
0.),(0.,0.,1.),(-0.997858215193251,-0.0654139310188552,0.),(0.,0.,-1.),
(-0.866026507124692,0.499998088953754,0.),(0.,0.,-1.),(-0.997858215193251,
-0.0654139310188552,0.),(0.965927221391028,-0.258813838454996,0.),(0.,0.,
-1.),(0.965927221391028,-0.258813838454996,0.),(0.,0.,1.),(0.999999999998919,
1.47042152834266E-6,0.),(0.,0.,-1.),(0.866019882116615,-0.50000956368726,
0.),(0.,0.,1.),(0.,0.,-1.),(-1.,0.,0.),(0.,-1.,0.),(0.866019882116615,-0.50000956368726,
0.),(0.,0.,-1.),(0.999999999998919,1.47042152834266E-6,0.),(0.,0.,1.),(0.,
0.,1.),(0.,-1.,0.),(-1.,0.,0.),(0.965927956718452,0.258811094100921,0.),
(0.,0.,-1.),(0.965927956718452,0.258811094100921,0.),(0.,0.,1.),(0.866022037940175,
0.500005829767961,0.),(0.,0.,-1.),(0.866022037940175,0.500005829767961,
0.),(0.,0.,1.),(0.707100460801706,0.707113101514896,0.),(0.,0.,-1.),(0.707100460801706,
0.707113101514896,0.),(0.,0.,1.),(0.499998088953755,0.866026507124691,0.),
(0.,0.,-1.),(0.499998088953755,0.866026507124691,0.),(0.,0.,1.),(0.258821883782215,
0.965925065662666,0.),(0.,0.,-1.),(0.,0.,-1.),(-0.258829455101622,-0.965923036878093,
0.),(0.,0.,-1.),(-0.0654139310188403,-0.997858215193252,0.),(0.258821883782215,
0.965925065662666,0.),(0.,0.,1.),(0.,0.,1.),(-0.258829455101622,-0.965923036878093,
0.),(0.,0.,1.),(-0.0654139310188403,-0.997858215193252,0.),(0.,1.,0.),(0.,
0.,-1.),(0.,0.,-1.),(-0.500008618785307,-0.866020427669238,0.),(0.,1.,0.),
(0.,0.,1.),(0.,0.,1.),(-0.500008618785307,-0.866020427669238,0.),(-0.258821883782213,
0.965925065662666,0.),(0.,0.,-1.),(0.,0.,-1.),(-0.707106781186555,-0.70710678118654,
0.),(-0.258821883782213,0.965925065662666,0.),(0.,0.,1.),(0.,0.,1.),(-0.707106781186555,
-0.70710678118654,0.),(-0.499998088953751,0.866026507124694,0.),(0.,0.,
-1.),(0.,0.,-1.),(-0.866020427669244,-0.500008618785297,0.),(-0.499998088953751,
0.866026507124694,0.),(0.,0.,1.),(0.,0.,1.),(-0.866020427669244,-0.500008618785297,
0.),(-0.707106781186547,0.707106781186547,0.),(0.,0.,-1.),(0.,0.,-1.),(-0.997858215193251,
-0.0654139310188552,0.),(0.,0.,-1.),(-0.965923036878089,-0.258829455101638,
0.),(-0.707106781186547,0.707106781186547,0.),(0.,0.,1.),(0.,0.,1.),(-0.997858215193251,
-0.0654139310188552,0.),(0.,0.,1.),(-0.965923036878089,-0.258829455101638,
0.),(0.,0.,-1.),(-0.997858215193251,0.0654139310188552,0.),(-0.997858215193251,
0.0654139310188552,0.),(0.,0.,1.),(-0.999999999998919,1.47066674868249E-6,
0.),(0.,0.,-1.),(-0.999999999998919,1.47066674868249E-6,0.),(0.,0.,1.),
(-0.965924330368054,-0.258824627891217,0.),(0.,0.,-1.),(-0.965924330368054,
-0.258824627891217,0.),(0.,0.,1.),(-0.866024351334506,-0.500001822892325,
0.),(0.,0.,-1.),(-0.866024351334506,-0.500001822892325,0.),(0.,0.,1.),(-0.707113101514895,
-0.707100460801706,0.),(0.,0.,-1.),(-0.707113101514895,-0.707100460801706,
0.),(0.,0.,1.),(-0.500005829767963,-0.866022037940173,0.),(0.,0.,-1.),(-0.500005829767963,
-0.866022037940173,0.),(0.,0.,1.),(-0.258811094100924,-0.965927956718452,
0.),(0.,0.,-1.),(-0.258811094100924,-0.965927956718452,0.),(0.,0.,1.),(0.,
-1.,0.),(0.,0.,-1.),(0.,-1.,0.),(0.,0.,1.),(0.258811094100926,-0.965927956718451,
0.),(0.,0.,-1.),(0.258811094100926,-0.965927956718451,0.),(0.,0.,1.),(0.500005829767963,
-0.866022037940173,0.),(0.,0.,-1.),(0.,0.,-1.),(-0.258821883782214,-0.965925065662666,
0.),(0.500005829767963,-0.866022037940173,0.),(0.,0.,1.),(0.,0.,1.),(-0.258821883782214,
-0.965925065662666,0.),(0.707106781186547,-0.707106781186548,0.),(0.,0.,
-1.),(0.,0.,-1.),(0.,-1.,0.),(1.,0.,0.),(0.,0.,-1.),(-0.499998088953755,
-0.866026507124691,0.),(0.707106781186547,-0.707106781186548,0.),(0.,0.,
1.),(0.,0.,1.),(1.,0.,0.),(0.,-1.,0.),(0.,0.,1.),(-0.499998088953755,-0.866026507124691,
0.),(0.965925065662666,-0.258821883782216,0.),(0.,0.,-1.),(0.965925065662666,
-0.258821883782216,0.),(0.,0.,1.),(1.,0.,0.),(0.,0.,-1.),(0.866026507124691,
-0.499998088953755,0.),(0.,0.,1.),(0.866026507124691,-0.499998088953755,
0.),(0.,0.,-1.),(1.,0.,0.),(0.,0.,1.),(0.707113101514894,0.707100460801707,
0.),(0.,0.,-1.),(0.707113101514894,0.707100460801707,0.),(0.,0.,1.),(0.500005829767964,
0.866022037940173,0.),(0.,0.,-1.),(0.500005829767964,0.866022037940173,
0.),(0.,0.,1.),(0.258811094100922,0.965927956718452,0.),(0.,0.,-1.),(0.258811094100922,
0.965927956718452,0.),(0.,0.,1.),(0.,1.,0.),(0.,0.,-1.),(0.,1.,0.),(0.,
0.,1.),(-0.258811094100921,0.965927956718452,0.),(0.,0.,-1.),(-0.258811094100921,
0.965927956718452,0.),(0.,0.,1.),(-0.500005829767964,0.866022037940172,
0.),(0.,0.,-1.),(0.,0.,-1.),(0.965923036878092,-0.258829455101625,0.),(-0.500005829767964,
0.866022037940172,0.),(0.,0.,1.),(0.,0.,1.),(0.965923036878092,-0.258829455101625,
0.),(-0.707113101514894,0.707100460801708,0.),(0.,0.,-1.),(0.,0.,-1.),(0.866020427669238,
-0.500008618785306,0.),(-0.707113101514894,0.707100460801708,0.),(0.,0.,
1.),(0.,0.,1.),(0.866020427669238,-0.500008618785306,0.),(-0.866026507124692,
0.499998088953754,0.),(0.,0.,-1.),(0.,0.,-1.),(1.,0.,0.),(0.,1.,0.),(0.,
0.,-1.),(0.707106781186547,-0.707106781186548,0.),(-0.866026507124692,0.499998088953754,
0.),(0.,0.,1.),(0.,0.,1.),(0.,1.,0.),(1.,0.,0.),(0.,0.,1.),(0.707106781186547,
-0.707106781186548,0.),(-0.965925065662666,0.258821883782215,0.),(0.,0.,
-1.),(-0.965925065662666,0.258821883782215,0.),(0.,0.,1.),(-1.,0.,0.),(0.,
0.,-1.),(-1.,0.,0.),(0.,0.,1.),(-0.965925065662666,-0.258821883782214,0.),
(0.,0.,-1.),(-0.965925065662666,-0.258821883782214,0.),(0.,0.,1.),(-0.866026507124691,
-0.499998088953755,0.),(0.,0.,-1.),(-0.866026507124691,-0.499998088953755,
0.),(0.,0.,1.),(-0.707106781186555,-0.70710678118654,0.),(0.,0.,-1.),(-0.707106781186555,
-0.70710678118654,0.),(0.,0.,1.),(0.,-1.,0.),(0.,0.,-1.),(0.,-1.,0.),(0.,
0.,1.),(0.258821883782215,-0.965925065662666,0.),(0.,0.,-1.),(0.258821883782215,
-0.965925065662666,0.),(0.,0.,1.),(0.499998088953754,-0.866026507124692,
0.),(0.,0.,-1.),(0.499998088953754,-0.866026507124692,0.),(0.,0.,1.),(0.707106781186547,
-0.707106781186548,0.),(0.,0.,-1.),(0.707106781186547,-0.707106781186548,
0.),(0.,0.,1.),(0.,1.,0.),(-1.,0.,0.),(0.,0.,-1.),(0.,1.,0.),(0.,0.,1.),
(-1.,0.,0.),(0.,0.,-1.),(0.997858215193252,-0.0654139310188403,0.),(-1.,
0.,0.),(0.,0.,1.),(0.,-1.,0.),(0.,-1.,0.),(-1.,0.,0.),(0.,0.,-1.),(0.,0.,
-1.),(0.997858215193252,0.0654139310188403,0.),(0.,0.,-1.),(0.965923036878092,
-0.258829455101625,0.),(0.,0.,-1.),(0.866020427669238,-0.500008618785306,
0.),(0.,0.,-1.),(0.707106781186547,-0.707106781186548,0.),(0.,0.,-1.),(0.500008618785306,
-0.866020427669238,0.),(0.,0.,-1.),(0.500008618785297,0.866020427669244,
0.),(0.,0.,-1.),(0.965923036878093,0.258829455101622,0.),(0.,0.,-1.),(0.70710678118654,
0.707106781186555,0.),(0.,0.,-1.),(0.866020427669238,0.500008618785307,
0.),(0.,0.,1.),(0.997858215193252,-0.0654139310188403,0.),(0.,0.,1.),(0.997858215193252,
0.0654139310188403,0.),(0.,0.,1.),(0.965923036878092,-0.258829455101625,
0.),(0.,0.,1.),(0.866020427669238,-0.500008618785306,0.),(0.,0.,1.),(0.707106781186547,
-0.707106781186548,0.),(0.,0.,1.),(0.500008618785306,-0.866020427669238,
0.),(0.,0.,1.),(0.500008618785297,0.866020427669244,0.),(0.,0.,1.),(0.965923036878093,
0.258829455101622,0.),(0.,0.,1.),(0.70710678118654,0.707106781186555,0.),
(0.,0.,1.),(0.866020427669238,0.500008618785307,0.),(0.,0.,-1.),(0.997858215193252,
0.0654139310188403,0.),(0.,0.,-1.),(0.965923036878092,-0.258829455101625,
0.),(0.,0.,-1.),(0.997858215193252,-0.0654139310188403,0.),(0.,0.,-1.),
(0.866020427669238,-0.500008618785306,0.),(0.,0.,-1.),(0.707106781186547,
-0.707106781186548,0.),(0.,0.,-1.),(0.500008618785306,-0.866020427669238,
0.),(0.,0.,-1.),(0.500008618785297,0.866020427669244,0.),(0.,0.,-1.),(0.965923036878093,
0.258829455101622,0.),(0.,0.,-1.),(0.70710678118654,0.707106781186555,0.),
(0.,0.,-1.),(0.866020427669238,0.500008618785307,0.),(0.,0.,1.),(0.997858215193252,
0.0654139310188403,0.),(0.,0.,1.),(0.997858215193252,-0.0654139310188403,
0.),(0.,0.,1.),(0.965923036878092,-0.258829455101625,0.),(0.,0.,1.),(0.866020427669238,
-0.500008618785306,0.),(0.,0.,1.),(0.707106781186547,-0.707106781186548,
0.),(0.,0.,1.),(0.500008618785306,-0.866020427669238,0.),(0.,0.,1.),(0.500008618785297,
0.866020427669244,0.),(0.,0.,1.),(0.965923036878093,0.258829455101622,0.),
(0.,0.,1.),(0.70710678118654,0.707106781186555,0.),(0.,0.,1.),(0.866020427669238,
0.500008618785307,0.),(0.,0.,-1.),(0.997858215193252,-0.0654139310188403,
0.),(0.997858215193252,-0.0654139310188403,0.),(0.,0.,1.),(0.,1.,0.),(-1.,
0.,0.),(0.,0.,-1.),(0.,1.,0.),(0.,0.,1.),(-1.,0.,0.),(0.,0.,-1.),(0.0654139310188403,
-0.997858215193252,0.),(0.,0.,-1.),(0.500008618785306,-0.866020427669238,
0.),(0.,0.,-1.),(0.707106781186547,-0.707106781186548,0.),(0.,0.,-1.),(-0.707106781186555,
-0.70710678118654,0.),(0.,0.,-1.),(0.258829455101625,-0.965923036878092,
0.),(0.,0.,-1.),(0.0654139310188403,-0.997858215193252,0.),(0.,0.,-1.),
(-0.0654139310188403,-0.997858215193252,0.),(0.,0.,-1.),(-0.258829455101622,
-0.965923036878093,0.),(0.,0.,-1.),(-0.500008618785307,-0.866020427669238,
0.),(0.,0.,-1.),(0.258829455101625,-0.965923036878092,0.),(0.,0.,-1.),(-0.258829455101622,
-0.965923036878093,0.),(0.,0.,-1.),(0.500008618785306,-0.866020427669238,
0.),(0.,0.,-1.),(0.258829455101625,-0.965923036878092,0.),(0.,0.,-1.),(0.0654139310188403,
-0.997858215193252,0.),(0.,0.,-1.),(-0.0654139310188403,-0.997858215193252,
0.),(0.,0.,1.),(0.0654139310188403,-0.997858215193252,0.),(0.,0.,1.),(0.707106781186547,
-0.707106781186548,0.),(0.,0.,1.),(0.500008618785306,-0.866020427669238,
0.),(0.,0.,1.),(-0.707106781186555,-0.70710678118654,0.),(0.,0.,1.),(0.258829455101625,
-0.965923036878092,0.),(0.,0.,1.),(0.0654139310188403,-0.997858215193252,
0.),(0.,0.,1.),(-0.0654139310188403,-0.997858215193252,0.),(0.,0.,1.),(-0.258829455101622,
-0.965923036878093,0.),(0.,0.,1.),(-0.500008618785307,-0.866020427669238,
0.),(0.,0.,1.),(0.258829455101625,-0.965923036878092,0.),(0.,0.,1.),(-0.258829455101622,
-0.965923036878093,0.),(0.,0.,1.),(0.500008618785306,-0.866020427669238,
0.),(0.,0.,1.),(0.258829455101625,-0.965923036878092,0.),(0.,0.,1.),(0.0654139310188403,
-0.997858215193252,0.),(0.,0.,1.),(-0.0654139310188403,-0.997858215193252,
0.),(0.997858215193252,-0.0654139310188403,0.),(0.,0.,1.),(0.997858215193252,
-0.0654139310188403,0.),(0.,0.,-1.),(0.965923036878092,-0.258829455101625,
0.),(0.,0.,1.),(0.,0.,1.),(0.997858215193252,0.0654139310188403,0.),(0.,
0.,1.),(-0.965923036878089,-0.258829455101638,0.),(0.,0.,1.),(-0.997858215193251,
-0.0654139310188552,0.),(0.965923036878092,-0.258829455101625,0.),(0.,0.,
-1.),(0.,0.,-1.),(-0.997858215193251,-0.0654139310188552,0.),(0.997858215193252,
0.0654139310188403,0.),(0.,0.,-1.),(0.,0.,-1.),(-0.997858215193251,0.0654139310188552,
0.),(0.866020427669238,-0.500008618785306,0.),(0.,0.,1.),(0.,0.,1.),(-0.866020427669244,
-0.500008618785297,0.),(0.866020427669238,-0.500008618785306,0.),(0.,0.,
-1.),(0.,0.,-1.),(-0.965923036878089,-0.258829455101638,0.),(0.707106781186547,
-0.707106781186548,0.),(0.,0.,1.),(0.,0.,1.),(-0.707106781186555,-0.70710678118654,
0.),(0.707106781186547,-0.707106781186548,0.),(0.,0.,-1.),(0.,0.,-1.),(-0.866020427669244,
-0.500008618785297,0.),(0.500008618785306,-0.866020427669238,0.),(0.,0.,
1.),(0.,0.,1.),(0.500008618785297,0.866020427669244,0.),(0.,0.,1.),(-0.707106781186547,
0.707106781186547,0.),(0.,0.,1.),(0.70710678118654,0.707106781186555,0.),
(0.500008618785306,-0.866020427669238,0.),(0.,0.,-1.),(0.,0.,-1.),(0.500008618785297,
0.866020427669244,0.),(0.,0.,-1.),(-0.707106781186555,-0.70710678118654,
0.),(0.,0.,-1.),(0.70710678118654,0.707106781186555,0.),(0.258829455101625,
-0.965923036878092,0.),(0.,0.,1.),(0.,0.,1.),(0.258829455101638,0.965923036878089,
0.),(0.258829455101625,-0.965923036878092,0.),(0.,0.,-1.),(0.,0.,-1.),(0.258829455101638,
0.965923036878089,0.),(0.0654139310188403,-0.997858215193252,0.),(0.,0.,
1.),(0.,0.,1.),(0.0654139310188552,0.997858215193251,0.),(0.0654139310188403,
-0.997858215193252,0.),(0.,0.,-1.),(0.,0.,-1.),(0.0654139310188552,0.997858215193251,
0.),(-0.0654139310188403,-0.997858215193252,0.),(0.,0.,-1.),(-0.0654139310188403,
-0.997858215193252,0.),(0.,0.,1.),(0.,0.,-1.),(-0.0654139310188552,0.997858215193251,
0.),(0.965923036878093,0.258829455101622,0.),(0.,0.,-1.),(0.,0.,-1.),(-0.965923036878089,
0.258829455101638,0.),(0.965923036878093,0.258829455101622,0.),(0.,0.,1.),
(0.,0.,1.),(-0.997858215193251,0.0654139310188552,0.),(0.258829455101638,
0.965923036878089,0.),(0.,0.,1.),(0.,0.,1.),(-0.258829455101638,0.965923036878089,
0.),(0.258829455101638,0.965923036878089,0.),(0.,0.,-1.),(0.500008618785297,
0.866020427669244,0.),(0.,0.,1.),(0.,0.,1.),(-0.500008618785297,0.866020427669243,
0.),(0.500008618785297,0.866020427669244,0.),(0.,0.,-1.),(0.,0.,-1.),(-0.258829455101638,
0.965923036878089,0.),(0.70710678118654,0.707106781186555,0.),(0.,0.,1.),
(0.,0.,1.),(-0.707106781186547,0.707106781186547,0.),(0.70710678118654,
0.707106781186555,0.),(0.,0.,-1.),(0.,0.,-1.),(-0.500008618785297,0.866020427669243,
0.),(0.866020427669238,0.500008618785307,0.),(0.,0.,1.),(0.,0.,1.),(-0.866020427669243,
0.500008618785297,0.),(0.866020427669238,0.500008618785307,0.),(0.,0.,-1.),
(0.,0.,-1.),(-0.707106781186547,0.707106781186547,0.),(0.,0.,1.),(-0.965923036878089,
0.258829455101638,0.),(0.,0.,-1.),(-0.866020427669243,0.500008618785297,
0.),(-0.965923036878089,-0.258829455101638,0.),(0.,0.,-1.),(-0.965923036878089,
-0.258829455101638,0.),(0.,0.,1.),(0.,0.,1.),(-0.258829455101622,-0.965923036878093,
0.),(0.,0.,1.),(-0.0654139310188552,0.997858215193251,0.),(-0.258829455101622,
-0.965923036878093,0.),(0.,0.,-1.),(-0.500008618785307,-0.866020427669238,
0.),(0.,0.,1.),(0.,0.,1.),(-0.258829455101638,0.965923036878089,0.),(-0.500008618785307,
-0.866020427669238,0.),(0.,0.,-1.),(0.,0.,-1.),(-0.258829455101638,0.965923036878089,
0.),(-0.707106781186555,-0.70710678118654,0.),(0.,0.,1.),(0.,0.,1.),(-0.500008618785297,
0.866020427669243,0.),(-0.707106781186555,-0.70710678118654,0.),(0.,0.,
-1.),(0.,0.,-1.),(-0.500008618785297,0.866020427669243,0.),(-0.866020427669244,
-0.500008618785297,0.),(0.,0.,1.),(0.,0.,1.),(-0.707106781186547,0.707106781186547,
0.),(-0.866020427669244,-0.500008618785297,0.),(0.,0.,-1.),(0.,0.,-1.),
(-0.707106781186547,0.707106781186547,0.),(0.,0.,1.),(-0.965923036878089,
0.258829455101638,0.),(0.,0.,1.),(-0.866020427669243,0.500008618785297,
0.),(0.,0.,-1.),(-0.965923036878089,0.258829455101638,0.),(0.,0.,-1.),(-0.866020427669243,
0.500008618785297,0.),(0.997858215193252,-0.0654139310188403,0.),(0.,0.,
1.),(0.997858215193252,-0.0654139310188403,0.),(0.,0.,-1.),(0.965923036878092,
-0.258829455101625,0.),(0.,0.,1.),(0.,0.,1.),(0.997858215193252,0.0654139310188403,
0.),(0.,0.,1.),(-0.965923036878089,-0.258829455101638,0.),(0.,0.,1.),(-0.997858215193251,
-0.0654139310188552,0.),(0.965923036878092,-0.258829455101625,0.),(0.,0.,
-1.),(0.,0.,-1.),(-0.997858215193251,-0.0654139310188552,0.),(0.997858215193252,
0.0654139310188403,0.),(0.,0.,-1.),(0.,0.,-1.),(-0.997858215193251,0.0654139310188552,
0.),(0.866020427669238,-0.500008618785306,0.),(0.,0.,1.),(0.,0.,1.),(-0.866020427669244,
-0.500008618785297,0.),(0.866020427669238,-0.500008618785306,0.),(0.,0.,
-1.),(0.,0.,-1.),(-0.965923036878089,-0.258829455101638,0.),(0.707106781186547,
-0.707106781186548,0.),(0.,0.,1.),(0.,0.,1.),(-0.707106781186555,-0.70710678118654,
0.),(0.707106781186547,-0.707106781186548,0.),(0.,0.,-1.),(0.,0.,-1.),(-0.866020427669244,
-0.500008618785297,0.),(0.500008618785306,-0.866020427669238,0.),(0.,0.,
1.),(0.,0.,1.),(0.500008618785297,0.866020427669244,0.),(0.,0.,1.),(-0.707106781186547,
0.707106781186547,0.),(0.,0.,1.),(0.70710678118654,0.707106781186555,0.),
(0.500008618785306,-0.866020427669238,0.),(0.,0.,-1.),(0.,0.,-1.),(0.500008618785297,
0.866020427669244,0.),(0.,0.,-1.),(-0.707106781186555,-0.70710678118654,
0.),(0.,0.,-1.),(0.70710678118654,0.707106781186555,0.),(0.258829455101625,
-0.965923036878092,0.),(0.,0.,1.),(0.,0.,1.),(0.258829455101638,0.965923036878089,
0.),(0.258829455101625,-0.965923036878092,0.),(0.,0.,-1.),(0.,0.,-1.),(0.258829455101638,
0.965923036878089,0.),(0.0654139310188403,-0.997858215193252,0.),(0.,0.,
1.),(0.,0.,1.),(0.0654139310188552,0.997858215193251,0.),(0.0654139310188403,
-0.997858215193252,0.),(0.,0.,-1.),(0.,0.,-1.),(0.0654139310188552,0.997858215193251,
0.),(-0.0654139310188403,-0.997858215193252,0.),(0.,0.,-1.),(-0.0654139310188403,
-0.997858215193252,0.),(0.,0.,1.),(0.,0.,-1.),(-0.0654139310188552,0.997858215193251,
0.),(0.965923036878093,0.258829455101622,0.),(0.,0.,-1.),(0.,0.,-1.),(-0.965923036878089,
0.258829455101638,0.),(0.965923036878093,0.258829455101622,0.),(0.,0.,1.),
(0.,0.,1.),(-0.997858215193251,0.0654139310188552,0.),(0.258829455101638,
0.965923036878089,0.),(0.,0.,1.),(0.,0.,1.),(-0.258829455101638,0.965923036878089,
0.),(0.258829455101638,0.965923036878089,0.),(0.,0.,-1.),(0.500008618785297,
0.866020427669244,0.),(0.,0.,1.),(0.,0.,1.),(-0.500008618785297,0.866020427669243,
0.),(0.500008618785297,0.866020427669244,0.),(0.,0.,-1.),(0.,0.,-1.),(-0.258829455101638,
0.965923036878089,0.),(0.70710678118654,0.707106781186555,0.),(0.,0.,1.),
(0.,0.,1.),(-0.707106781186547,0.707106781186547,0.),(0.70710678118654,
0.707106781186555,0.),(0.,0.,-1.),(0.,0.,-1.),(-0.500008618785297,0.866020427669243,
0.),(0.866020427669238,0.500008618785307,0.),(0.,0.,1.),(0.,0.,1.),(-0.866020427669243,
0.500008618785297,0.),(0.866020427669238,0.500008618785307,0.),(0.,0.,-1.),
(0.,0.,-1.),(-0.707106781186547,0.707106781186547,0.),(0.,0.,1.),(-0.965923036878089,
0.258829455101638,0.),(0.,0.,-1.),(-0.866020427669243,0.500008618785297,
0.),(-0.258829455101622,-0.965923036878093,0.),(0.,0.,1.),(0.,0.,1.),(-0.0654139310188552,
0.997858215193251,0.),(-0.258829455101622,-0.965923036878093,0.),(0.,0.,
-1.),(0.,0.,-1.),(-0.258829455101638,0.965923036878089,0.),(-0.500008618785307,
-0.866020427669238,0.),(0.,0.,1.),(0.,0.,1.),(-0.258829455101638,0.965923036878089,
0.),(-0.500008618785307,-0.866020427669238,0.),(0.,0.,-1.),(0.,0.,-1.),
(-0.500008618785297,0.866020427669243,0.),(-0.500008618785297,0.866020427669243,
0.),(0.,0.,1.),(0.,0.,-1.),(-0.707106781186547,0.707106781186547,0.),(0.258829455101625,
-0.965923036878092,0.),(0.,0.,1.),(0.258829455101625,-0.965923036878092,
0.),(0.,0.,-1.),(0.0654139310188403,-0.997858215193252,0.),(0.,0.,1.),(0.,
0.,1.),(0.258829455101638,0.965923036878089,0.),(0.0654139310188403,-0.997858215193252,
0.),(0.,0.,-1.),(0.,0.,-1.),(0.258829455101638,0.965923036878089,0.),(-0.0654139310188403,
-0.997858215193252,0.),(0.,0.,-1.),(-0.0654139310188403,-0.997858215193252,
0.),(0.,0.,1.),(0.,0.,1.),(0.0654139310188552,0.997858215193251,0.),(0.,
0.,-1.),(-0.0654139310188552,0.997858215193251,0.),(0.,0.,-1.),(0.0654139310188552,
0.997858215193251,0.),(-0.258829455101622,-0.965923036878093,0.),(0.,0.,
1.),(0.,0.,1.),(-0.0654139310188552,0.997858215193251,0.),(-0.258829455101622,
-0.965923036878093,0.),(0.,0.,-1.),(0.,0.,-1.),(-0.258829455101638,0.965923036878089,
0.),(-0.500008618785307,-0.866020427669238,0.),(0.,0.,1.),(0.,0.,1.),(-0.258829455101638,
0.965923036878089,0.),(-0.500008618785307,-0.866020427669238,0.),(0.,0.,
-1.),(0.,0.,-1.),(-0.500008618785297,0.866020427669243,0.),(-0.500008618785297,
0.866020427669243,0.),(0.,0.,1.),(0.,0.,-1.),(-0.707106781186547,0.707106781186547,
0.),(0.997858215193252,-0.0654139310188403,0.),(0.,0.,1.),(0.997858215193252,
-0.0654139310188403,0.),(0.,0.,-1.),(0.965923036878092,-0.258829455101625,
0.),(0.,0.,1.),(0.,0.,1.),(0.997858215193252,0.0654139310188403,0.),(0.,
0.,1.),(-0.965923036878089,-0.258829455101638,0.),(0.,0.,1.),(-0.997858215193251,
-0.0654139310188552,0.),(0.965923036878092,-0.258829455101625,0.),(0.,0.,
-1.),(0.,0.,-1.),(-0.997858215193251,-0.0654139310188552,0.),(0.997858215193252,
0.0654139310188403,0.),(0.,0.,-1.),(0.,0.,-1.),(-0.997858215193251,0.0654139310188552,
0.),(0.866020427669238,-0.500008618785306,0.),(0.,0.,1.),(0.,0.,1.),(-0.866020427669244,
-0.500008618785297,0.),(0.866020427669238,-0.500008618785306,0.),(0.,0.,
-1.),(0.,0.,-1.),(-0.965923036878089,-0.258829455101638,0.),(0.707106781186547,
-0.707106781186548,0.),(0.,0.,1.),(0.,0.,1.),(-0.707106781186555,-0.70710678118654,
0.),(0.707106781186547,-0.707106781186548,0.),(0.,0.,-1.),(0.,0.,-1.),(-0.866020427669244,
-0.500008618785297,0.),(0.500008618785306,-0.866020427669238,0.),(0.,0.,
1.),(0.,0.,1.),(0.500008618785297,0.866020427669244,0.),(0.,0.,1.),(-0.707106781186547,
0.707106781186547,0.),(0.,0.,1.),(0.70710678118654,0.707106781186555,0.),
(0.500008618785306,-0.866020427669238,0.),(0.,0.,-1.),(0.,0.,-1.),(0.500008618785297,
0.866020427669244,0.),(0.,0.,-1.),(-0.707106781186555,-0.70710678118654,
0.),(0.,0.,-1.),(0.70710678118654,0.707106781186555,0.),(0.258829455101625,
-0.965923036878092,0.),(0.,0.,1.),(0.,0.,1.),(0.258829455101638,0.965923036878089,
0.),(0.258829455101625,-0.965923036878092,0.),(0.,0.,-1.),(0.,0.,-1.),(0.258829455101638,
0.965923036878089,0.),(0.0654139310188403,-0.997858215193252,0.),(0.,0.,
1.),(0.,0.,1.),(0.0654139310188552,0.997858215193251,0.),(0.0654139310188403,
-0.997858215193252,0.),(0.,0.,-1.),(0.,0.,-1.),(0.0654139310188552,0.997858215193251,
0.),(-0.0654139310188403,-0.997858215193252,0.),(0.,0.,-1.),(-0.0654139310188403,
-0.997858215193252,0.),(0.,0.,1.),(0.,0.,-1.),(-0.0654139310188552,0.997858215193251,
0.),(0.965923036878093,0.258829455101622,0.),(0.,0.,-1.),(0.,0.,-1.),(-0.965923036878089,
0.258829455101638,0.),(0.965923036878093,0.258829455101622,0.),(0.,0.,1.),
(0.,0.,1.),(-0.997858215193251,0.0654139310188552,0.),(0.866020427669238,
0.500008618785307,0.),(0.,0.,1.),(0.,0.,1.),(-0.866020427669243,0.500008618785297,
0.),(0.866020427669238,0.500008618785307,0.),(0.,0.,-1.),(0.,0.,1.),(-0.965923036878089,
0.258829455101638,0.),(0.,0.,-1.),(-0.866020427669243,0.500008618785297,
0.),(-0.965923036878089,-0.258829455101638,0.),(0.,0.,-1.),(-0.965923036878089,
-0.258829455101638,0.),(0.,0.,1.),(0.,0.,1.),(-0.258829455101622,-0.965923036878093,
0.),(0.,0.,1.),(-0.0654139310188552,0.997858215193251,0.),(-0.258829455101622,
-0.965923036878093,0.),(0.,0.,-1.),(-0.500008618785307,-0.866020427669238,
0.),(0.,0.,1.),(0.,0.,1.),(-0.258829455101638,0.965923036878089,0.),(-0.500008618785307,
-0.866020427669238,0.),(0.,0.,-1.),(0.,0.,-1.),(-0.258829455101638,0.965923036878089,
0.),(-0.707106781186555,-0.70710678118654,0.),(0.,0.,1.),(0.,0.,1.),(-0.500008618785297,
0.866020427669243,0.),(-0.707106781186555,-0.70710678118654,0.),(0.,0.,
-1.),(0.,0.,-1.),(-0.500008618785297,0.866020427669243,0.),(-0.866020427669244,
-0.500008618785297,0.),(0.,0.,1.),(0.,0.,1.),(-0.707106781186547,0.707106781186547,
0.),(-0.866020427669244,-0.500008618785297,0.),(0.,0.,-1.),(0.,0.,-1.),
(-0.707106781186547,0.707106781186547,0.),(0.,0.,1.),(-0.866020427669243,
0.500008618785297,0.),(-0.866020427669243,0.500008618785297,0.),(0.,0.,
-1.),(0.,0.,1.),(-0.965923036878089,0.258829455101638,0.),(-0.965923036878089,
0.258829455101638,0.),(0.,0.,-1.),(0.997858215193252,-0.0654139310188403,
0.),(0.,0.,1.),(0.997858215193252,-0.0654139310188403,0.),(0.,0.,-1.),(0.965923036878092,
-0.258829455101625,0.),(0.,0.,1.),(0.,0.,1.),(0.997858215193252,0.0654139310188403,
0.),(0.,0.,1.),(-0.965923036878089,-0.258829455101638,0.),(0.,0.,1.),(-0.997858215193251,
-0.0654139310188552,0.),(0.965923036878092,-0.258829455101625,0.),(0.,0.,
-1.),(0.,0.,-1.),(-0.997858215193251,-0.0654139310188552,0.),(0.997858215193252,
0.0654139310188403,0.),(0.,0.,-1.),(0.,0.,-1.),(-0.997858215193251,0.0654139310188552,
0.),(0.866020427669238,-0.500008618785306,0.),(0.,0.,1.),(0.,0.,1.),(-0.866020427669244,
-0.500008618785297,0.),(0.866020427669238,-0.500008618785306,0.),(0.,0.,
-1.),(0.,0.,-1.),(-0.965923036878089,-0.258829455101638,0.),(0.707106781186547,
-0.707106781186548,0.),(0.,0.,1.),(0.,0.,1.),(-0.707106781186555,-0.70710678118654,
0.),(0.707106781186547,-0.707106781186548,0.),(0.,0.,-1.),(0.,0.,-1.),(-0.866020427669244,
-0.500008618785297,0.),(0.500008618785306,-0.866020427669238,0.),(0.,0.,
1.),(0.,0.,1.),(0.500008618785297,0.866020427669244,0.),(0.,0.,1.),(-0.707106781186547,
0.707106781186547,0.),(0.,0.,1.),(0.70710678118654,0.707106781186555,0.),
(0.500008618785306,-0.866020427669238,0.),(0.,0.,-1.),(0.,0.,-1.),(0.500008618785297,
0.866020427669244,0.),(0.,0.,-1.),(-0.707106781186555,-0.70710678118654,
0.),(0.,0.,-1.),(0.70710678118654,0.707106781186555,0.),(0.258829455101625,
-0.965923036878092,0.),(0.,0.,1.),(0.,0.,1.),(0.258829455101638,0.965923036878089,
0.),(0.258829455101625,-0.965923036878092,0.),(0.,0.,-1.),(0.,0.,-1.),(0.258829455101638,
0.965923036878089,0.),(0.0654139310188403,-0.997858215193252,0.),(0.,0.,
1.),(0.,0.,1.),(0.0654139310188552,0.997858215193251,0.),(0.0654139310188403,
-0.997858215193252,0.),(0.,0.,-1.),(0.,0.,-1.),(0.0654139310188552,0.997858215193251,
0.),(-0.0654139310188403,-0.997858215193252,0.),(0.,0.,-1.),(-0.0654139310188403,
-0.997858215193252,0.),(0.,0.,1.),(0.,0.,-1.),(-0.0654139310188552,0.997858215193251,
0.),(0.965923036878093,0.258829455101622,0.),(0.,0.,-1.),(0.,0.,-1.),(-0.965923036878089,
0.258829455101638,0.),(0.965923036878093,0.258829455101622,0.),(0.,0.,1.),
(0.,0.,1.),(-0.997858215193251,0.0654139310188552,0.),(0.866020427669238,
0.500008618785307,0.),(0.,0.,1.),(0.,0.,1.),(-0.866020427669243,0.500008618785297,
0.),(0.866020427669238,0.500008618785307,0.),(0.,0.,-1.),(0.,0.,1.),(-0.965923036878089,
0.258829455101638,0.),(0.,0.,-1.),(-0.866020427669243,0.500008618785297,
0.),(-0.258829455101622,-0.965923036878093,0.),(0.,0.,1.),(0.,0.,1.),(-0.0654139310188552,
0.997858215193251,0.),(-0.258829455101622,-0.965923036878093,0.),(0.,0.,
-1.),(0.,0.,-1.),(-0.258829455101638,0.965923036878089,0.),(-0.500008618785307,
-0.866020427669238,0.),(0.,0.,1.),(0.,0.,1.),(-0.258829455101638,0.965923036878089,
0.),(-0.500008618785307,-0.866020427669238,0.),(0.,0.,-1.),(0.,0.,-1.),
(-0.500008618785297,0.866020427669243,0.),(-0.500008618785297,0.866020427669243,
0.),(0.,0.,1.),(0.,0.,-1.),(-0.707106781186547,0.707106781186547,0.),(0.258829455101625,
-0.965923036878092,0.),(0.,0.,1.),(0.,0.,1.),(0.258829455101638,0.965923036878089,
0.),(0.258829455101625,-0.965923036878092,0.),(0.,0.,-1.),(0.,0.,-1.),(0.258829455101638,
0.965923036878089,0.),(0.0654139310188403,-0.997858215193252,0.),(0.,0.,
1.),(0.,0.,1.),(0.0654139310188552,0.997858215193251,0.),(0.0654139310188403,
-0.997858215193252,0.),(0.,0.,-1.),(0.,0.,-1.),(0.0654139310188552,0.997858215193251,
0.),(-0.0654139310188403,-0.997858215193252,0.),(0.,0.,-1.),(-0.0654139310188403,
-0.997858215193252,0.),(0.,0.,1.),(0.,0.,-1.),(-0.0654139310188552,0.997858215193251,
0.),(-0.258829455101622,-0.965923036878093,0.),(0.,0.,1.),(0.,0.,1.),(-0.0654139310188552,
0.997858215193251,0.),(-0.258829455101622,-0.965923036878093,0.),(0.,0.,
-1.),(0.,0.,-1.),(-0.258829455101638,0.965923036878089,0.),(-0.500008618785307,
-0.866020427669238,0.),(0.,0.,1.),(0.,0.,1.),(-0.258829455101638,0.965923036878089,
0.),(-0.500008618785307,-0.866020427669238,0.),(0.,0.,-1.),(0.,0.,-1.),
(-0.500008618785297,0.866020427669243,0.),(-0.500008618785297,0.866020427669243,
0.),(0.,0.,1.),(0.,0.,-1.),(-0.707106781186547,0.707106781186547,0.),(0.997858215193252,
-0.0654139310188403,0.),(0.,0.,1.),(0.997858215193252,-0.0654139310188403,
0.),(0.,0.,-1.),(0.965923036878092,-0.258829455101625,0.),(0.,0.,1.),(0.,
0.,1.),(0.997858215193252,0.0654139310188403,0.),(0.,0.,1.),(-0.965923036878089,
-0.258829455101638,0.),(0.,0.,1.),(-0.997858215193251,-0.0654139310188552,
0.),(0.965923036878092,-0.258829455101625,0.),(0.,0.,-1.),(0.,0.,-1.),(-0.997858215193251,
-0.0654139310188552,0.),(0.997858215193252,0.0654139310188403,0.),(0.,0.,
-1.),(0.,0.,-1.),(-0.997858215193251,0.0654139310188552,0.),(0.866020427669238,
-0.500008618785306,0.),(0.,0.,1.),(0.,0.,1.),(-0.866020427669244,-0.500008618785297,
0.),(0.866020427669238,-0.500008618785306,0.),(0.,0.,-1.),(0.,0.,-1.),(-0.965923036878089,
-0.258829455101638,0.),(0.,0.,-1.),(-0.866020427669244,-0.500008618785297,
0.),(0.965923036878093,0.258829455101622,0.),(0.,0.,-1.),(0.,0.,-1.),(-0.965923036878089,
0.258829455101638,0.),(0.965923036878093,0.258829455101622,0.),(0.,0.,1.),
(0.,0.,1.),(-0.997858215193251,0.0654139310188552,0.),(0.866020427669238,
0.500008618785307,0.),(0.,0.,1.),(0.,0.,1.),(-0.866020427669243,0.500008618785297,
0.),(0.866020427669238,0.500008618785307,0.),(0.,0.,-1.),(0.,0.,1.),(-0.965923036878089,
0.258829455101638,0.),(0.,0.,-1.),(-0.866020427669243,0.500008618785297,
0.),(0.997858215193252,-0.0654139310188403,0.),(0.,0.,1.),(0.997858215193252,
-0.0654139310188403,0.),(0.,0.,-1.),(0.965923036878092,-0.258829455101625,
0.),(0.,0.,1.),(0.,0.,1.),(0.997858215193252,0.0654139310188403,0.),(0.,
0.,1.),(-0.965923036878089,-0.258829455101638,0.),(0.,0.,1.),(-0.997858215193251,
-0.0654139310188552,0.),(0.965923036878092,-0.258829455101625,0.),(0.,0.,
-1.),(0.,0.,-1.),(-0.997858215193251,-0.0654139310188552,0.),(0.997858215193252,
0.0654139310188403,0.),(0.,0.,-1.),(0.,0.,-1.),(-0.997858215193251,0.0654139310188552,
0.),(0.866020427669238,-0.500008618785306,0.),(0.,0.,1.),(0.,0.,1.),(-0.866020427669244,
-0.500008618785297,0.),(0.866020427669238,-0.500008618785306,0.),(0.,0.,
-1.),(0.,0.,-1.),(-0.965923036878089,-0.258829455101638,0.),(0.707106781186547,
-0.707106781186548,0.),(0.,0.,1.),(0.,0.,1.),(-0.707106781186555,-0.70710678118654,
0.),(0.707106781186547,-0.707106781186548,0.),(0.,0.,-1.),(0.,0.,-1.),(-0.866020427669244,
-0.500008618785297,0.),(0.500008618785306,-0.866020427669238,0.),(0.,0.,
1.),(0.,0.,1.),(-0.500008618785307,-0.866020427669238,0.),(0.500008618785306,
-0.866020427669238,0.),(0.,0.,-1.),(0.,0.,-1.),(-0.707106781186555,-0.70710678118654,
0.),(0.,0.,-1.),(-0.500008618785307,-0.866020427669238,0.),(0.965923036878093,
0.258829455101622,0.),(0.,0.,-1.),(0.,0.,-1.),(-0.965923036878089,0.258829455101638,
0.),(0.965923036878093,0.258829455101622,0.),(0.,0.,1.),(0.,0.,1.),(-0.997858215193251,
0.0654139310188552,0.),(0.866020427669238,0.500008618785307,0.),(0.,0.,
1.),(0.,0.,1.),(-0.866020427669243,0.500008618785297,0.),(0.866020427669238,
0.500008618785307,0.),(0.,0.,-1.),(0.,0.,1.),(-0.965923036878089,0.258829455101638,
0.),(0.,0.,-1.),(-0.866020427669243,0.500008618785297,0.)),$,(9,9,10,10,
5,5,20,20,1,1,1,19,19,13,13,3,3,3,6,6,2,2,2,14,14,4,4,4,7,7,8,8,17,17,18,
18,25,25,26,26,33,33,34,34,41,41,42,42,49,49,50,50,57,57,58,58,65,65,197,
197,653,653,661,661,66,66,198,198,662,662,654,654,73,73,181,181,74,74,182,
182,81,81,169,169,82,82,170,170,89,89,157,157,90,90,158,158,93,93,145,145,
94,94,146,146,91,91,133,133,92,92,134,134,83,83,121,121,84,84,122,122,75,
75,109,109,76,76,110,110,67,67,101,101,101,68,68,102,102,102,59,59,60,60,
51,51,52,52,43,43,44,44,35,35,36,36,27,27,28,28,103,103,103,104,104,104,
21,21,22,22,714,714,713,713,716,716,703,703,718,718,718,704,704,706,706,
720,720,720,715,715,717,717,717,705,705,719,719,719,712,712,711,711,702,
702,701,701,694,694,693,693,686,686,685,685,678,678,677,677,670,670,669,
669,646,646,366,366,354,354,645,645,365,365,353,353,638,638,526,526,637,
637,525,525,630,630,538,538,629,629,537,537,628,628,627,627,632,632,550,
550,631,631,549,549,640,640,562,562,639,639,561,561,648,648,574,574,647,
647,573,573,656,656,586,586,655,655,585,585,664,664,598,598,663,663,597,
597,672,672,610,610,671,671,609,609,680,680,679,679,688,688,612,612,687,
687,611,611,696,696,695,695,614,614,613,613,698,698,616,616,697,697,615,
615,625,625,626,626,621,621,636,636,451,451,451,635,635,622,622,452,452,
452,623,623,624,624,633,633,634,634,641,641,642,642,649,649,650,650,657,
657,559,559,547,547,658,658,560,560,548,548,665,665,571,571,666,666,572,
572,673,673,583,583,674,674,584,584,681,681,595,595,682,682,596,596,689,
689,619,619,607,607,690,690,620,620,608,608,617,617,618,618,709,709,710,
710,707,707,708,708,699,699,700,700,691,691,692,692,683,683,684,684,675,
675,676,676,667,667,668,668,659,659,660,660,651,651,63,63,652,652,64,64,
643,643,195,195,195,71,71,644,644,196,196,196,72,72,15,15,16,16,11,11,24,
24,23,23,12,12,29,29,30,30,37,37,38,38,45,45,46,46,53,53,54,54,61,61,62,
62,69,69,131,131,70,70,132,132,77,77,143,143,78,78,144,144,85,85,193,193,
193,155,155,86,86,194,194,194,156,156,95,95,96,96,99,99,100,100,97,97,98,
98,87,87,88,88,79,79,80,80,55,55,56,56,47,47,48,48,39,39,40,40,31,31,32,
32,105,105,105,106,106,106,111,111,108,108,108,107,107,107,113,113,123,
123,135,135,147,147,159,159,161,161,125,125,149,149,137,137,112,112,114,
114,124,124,136,136,148,148,160,160,162,162,126,126,150,150,138,138,117,
117,127,127,115,115,139,139,151,151,163,163,165,165,129,129,153,153,141,
141,118,118,116,116,128,128,140,140,152,152,164,164,166,166,130,130,154,
154,142,142,119,119,120,120,449,449,449,450,450,450,363,363,511,511,499,
499,411,411,523,523,535,535,375,375,387,387,399,399,351,351,219,219,167,
167,179,179,191,191,207,207,364,364,500,500,512,512,412,412,524,524,536,
536,376,376,388,388,400,400,352,352,220,220,168,168,180,180,192,192,208,
208,456,456,455,455,468,468,454,454,428,428,440,440,467,467,439,439,453,
453,437,437,480,480,416,416,479,479,427,427,492,492,404,404,491,491,415,
415,504,504,506,506,406,406,494,494,503,503,505,505,403,403,493,493,516,
516,518,518,515,515,517,517,528,528,530,530,527,527,529,529,539,539,540,
540,541,541,465,465,425,425,466,466,438,438,514,514,378,378,513,513,502,
502,390,390,501,501,377,377,490,490,402,402,489,489,389,389,478,478,414,
414,477,477,401,401,426,426,413,413,599,599,600,600,552,552,542,542,551,
551,564,564,554,554,563,563,553,553,576,576,566,566,575,575,565,565,588,
588,578,578,587,587,577,577,602,602,590,590,601,601,589,589,284,284,283,
283,296,296,282,282,260,260,272,272,295,295,271,271,281,281,269,269,308,
308,248,248,307,307,259,259,320,320,236,236,319,319,247,247,332,332,334,
334,238,238,322,322,331,331,333,333,235,235,321,321,344,344,346,346,343,
343,345,345,356,356,358,358,355,355,357,357,367,367,368,368,369,369,293,
293,257,257,294,294,270,270,342,342,210,210,341,341,330,330,222,222,329,
329,209,209,318,318,234,234,317,317,221,221,306,306,246,246,305,305,233,
233,258,258,245,245,380,380,370,370,379,379,381,381,392,392,382,382,391,
391,393,393,394,394,405,405,172,172,171,171,184,184,174,174,183,183,173,
173,199,199,200,200,186,186,201,201,185,185,212,212,202,202,211,211,213,
213,224,224,214,214,223,223,225,225,226,226,237,237,460,460,459,459,472,
472,458,458,432,432,444,444,471,471,443,443,457,457,441,441,484,484,420,
420,483,483,431,431,496,496,408,408,495,495,419,419,508,508,510,510,410,
410,498,498,507,507,509,509,407,407,497,497,520,520,522,522,519,519,521,
521,532,532,534,534,531,531,533,533,543,543,544,544,545,545,469,469,429,
429,470,470,442,442,482,482,418,418,481,481,430,430,417,417,603,603,604,
604,556,556,546,546,555,555,568,568,558,558,567,567,557,557,580,580,570,
570,579,579,569,569,592,592,582,582,591,591,581,581,594,594,593,593,606,
606,605,605,288,288,287,287,300,300,286,286,264,264,276,276,299,299,275,
275,285,285,273,273,312,312,252,252,311,311,263,263,324,324,240,240,323,
323,251,251,336,336,338,338,242,242,326,326,335,335,337,337,239,239,325,
325,348,348,350,350,347,347,349,349,360,360,362,362,359,359,361,361,371,
371,372,372,373,373,297,297,261,261,298,298,274,274,310,310,250,250,309,
309,262,262,249,249,384,384,374,374,383,383,385,385,396,396,386,386,395,
395,397,397,398,398,409,409,176,176,178,178,175,175,177,177,188,188,190,
190,187,187,189,189,203,203,204,204,205,205,216,216,206,206,215,215,217,
217,228,228,218,218,227,227,229,229,230,230,241,241,464,464,463,463,476,
476,462,462,436,436,448,448,475,475,447,447,461,461,445,445,488,488,424,
424,487,487,435,435,423,423,473,473,433,433,474,474,446,446,486,486,422,
422,485,485,434,434,421,421,292,292,291,291,304,304,290,290,268,268,280,
280,303,303,279,279,289,289,277,277,316,316,256,256,315,315,267,267,328,
328,244,244,327,327,255,255,340,340,232,232,339,339,243,243,231,231,301,
301,265,265,302,302,278,278,314,314,254,254,313,313,266,266,253,253),((1,
3,5),(1,7,3),(9,2,6),(12,7,1),(2,14,13),(16,14,2),(16,2,9),(5,3,19),(4,
21,20),(24,4,8),(24,26,4),(26,21,4),(5,19,29),(9,6,30),(29,19,31),(20,21,
32),(29,31,33),(30,34,9),(33,31,35),(32,21,36),(33,35,37),(9,34,38),(37,
35,39),(36,21,40),(37,39,41),(9,38,42),(41,39,43),(40,21,44),(41,43,45),
(42,46,9),(45,43,47),(44,21,48),(45,47,49),(9,46,50),(49,47,51),(48,21,
52),(49,51,53),(9,50,54),(53,51,55),(21,56,52),(53,55,57),(58,59,54),(54,
61,63),(54,63,9),(59,61,54),(57,55,65),(56,67,66),(69,71,56),(21,69,56),
(56,71,67),(57,65,73),(74,75,58),(58,75,59),(73,65,77),(66,79,78),(66,67,
79),(73,77,81),(82,83,74),(74,83,75),(81,77,85),(78,87,86),(78,79,87),(81,
85,89),(90,91,82),(82,91,83),(89,85,93),(86,95,94),(86,87,95),(89,93,97),
(98,99,90),(90,99,91),(97,93,101),(94,103,102),(94,95,103),(97,101,105),
(106,107,98),(98,107,99),(105,101,109),(102,111,110),(102,103,111),(105,
109,113),(114,115,106),(106,115,107),(113,109,117),(110,119,118),(110,111,
119),(113,117,121),(122,123,114),(114,123,115),(121,117,125),(118,127,126),
(118,119,127),(121,125,129),(130,131,122),(131,123,122),(129,125,134),(126,
136,135),(126,127,136),(129,134,139),(140,131,130),(139,134,141),(135,136,
142),(139,141,143),(144,131,140),(143,141,145),(142,136,146),(143,145,147),
(148,131,144),(147,145,149),(146,136,150),(147,149,151),(152,131,148),(151,
149,153),(150,136,154),(151,153,155),(156,131,152),(155,153,157),(154,136,
158),(155,157,12),(13,159,156),(156,159,131),(12,157,7),(158,163,8),(158,
136,163),(13,14,165),(13,165,159),(8,168,24),(8,163,168),(170,171,173),
(170,175,171),(169,174,177),(180,175,170),(182,181,169),(182,169,184),(184,
169,177),(173,171,187),(189,188,172),(172,176,192),(194,172,192),(189,172,
194),(173,187,197),(177,174,198),(197,187,199),(200,188,189),(197,199,201),
(177,198,202),(201,199,203),(204,200,189),(201,203,205),(202,206,177),(205,
203,207),(189,208,204),(205,207,209),(177,206,210),(209,207,211),(189,212,
208),(209,211,213),(177,210,214),(213,211,215),(216,212,189),(213,215,217),
(214,218,177),(217,215,219),(189,220,216),(217,219,70),(177,218,69),(70,
219,64),(189,63,220),(70,64,72),(177,69,21),(72,64,62),(9,63,189),(72,62,
221),(222,223,71),(71,223,225),(71,225,67),(221,62,227),(229,228,61),(229,
61,231),(231,61,59),(221,227,233),(235,222,234),(223,222,235),(233,227,
237),(239,238,228),(239,228,229),(233,237,241),(243,234,242),(235,234,243),
(241,237,245),(247,246,238),(247,238,239),(241,245,249),(243,242,250),(249,
245,251),(247,252,246),(249,251,253),(255,250,254),(243,250,255),(253,251,
257),(259,258,252),(259,252,247),(253,257,261),(263,254,262),(255,254,263),
(261,257,265),(267,266,258),(267,258,259),(261,265,269),(271,262,270),(263,
262,271),(269,265,273),(275,274,266),(275,266,267),(269,273,277),(279,270,
278),(271,270,279),(277,273,281),(283,282,274),(283,274,275),(277,281,285),
(287,278,286),(279,278,287),(285,281,289),(291,290,282),(291,282,283),(285,
289,293),(295,286,294),(287,286,295),(293,289,297),(299,298,290),(299,290,
291),(293,297,301),(295,294,302),(301,297,303),(299,304,298),(301,303,305),
(307,302,306),(295,302,307),(305,303,309),(311,310,304),(311,304,299),(305,
309,313),(307,306,314),(313,309,315),(311,316,310),(313,315,180),(317,314,
181),(307,314,317),(180,315,175),(319,176,316),(319,316,311),(321,181,182),
(323,181,321),(317,181,323),(192,176,325),(325,176,327),(327,176,319),(329,
331,333),(329,335,331),(334,337,330),(340,335,329),(330,337,341),(333,331,
342),(332,344,343),(336,344,332),(333,342,347),(348,337,334),(347,342,349),
(343,344,350),(347,349,351),(352,337,348),(351,349,353),(350,344,354),(351,
353,355),(356,337,352),(355,353,357),(354,344,358),(355,357,359),(360,337,
356),(359,357,361),(358,344,362),(359,361,363),(364,365,360),(367,337,360),
(360,365,367),(363,361,369),(371,370,362),(373,362,344),(371,362,373),(363,
369,375),(376,377,364),(364,377,365),(375,369,379),(381,380,370),(381,370,
371),(375,379,383),(384,385,376),(376,385,377),(383,379,387),(389,388,380),
(389,380,381),(383,387,391),(392,393,384),(384,393,385),(391,387,395),(397,
396,388),(397,388,389),(391,395,399),(400,401,392),(392,401,403),(392,403,
393),(399,395,405),(407,406,396),(407,396,409),(409,396,397),(399,405,326),
(325,411,400),(400,411,401),(326,405,322),(414,321,406),(414,406,407),(326,
322,193),(325,327,411),(193,322,183),(323,321,414),(193,183,415),(194,192,
416),(415,183,417),(184,418,182),(415,417,419),(416,420,194),(419,417,421),
(422,418,184),(419,421,423),(194,420,424),(423,421,425),(426,422,184),(423,
425,427),(194,424,428),(427,425,429),(184,430,426),(427,429,431),(428,432,
194),(431,429,433),(184,434,430),(431,433,435),(194,432,436),(435,433,437),
(438,434,184),(435,437,439),(194,436,440),(439,437,441),(184,442,438),(439,
441,443),(440,444,194),(443,441,445),(184,446,442),(443,445,447),(448,449,
444),(444,449,16),(444,16,194),(447,445,451),(446,453,452),(26,453,446),
(26,446,184),(447,451,455),(456,457,448),(448,460,449),(457,460,448),(455,
451,462),(452,464,463),(452,453,467),(452,467,464),(455,462,340),(341,337,
456),(456,337,457),(340,462,335),(463,344,336),(463,464,344),(469,471,473),
(469,475,471),(470,474,16),(477,475,469),(16,478,470),(473,471,479),(480,
472,26),(26,472,476),(473,479,15),(16,474,14),(15,479,25),(480,26,24),(15,
25,166),(166,25,167),(166,167,481),(159,165,482),(481,167,483),(163,484,
168),(481,483,485),(159,482,486),(485,483,487),(163,488,484),(485,487,489),
(486,490,159),(489,487,491),(492,488,163),(489,491,493),(159,490,494),(493,
491,495),(163,496,492),(493,495,497),(159,494,498),(497,495,499),(163,500,
496),(497,499,501),(503,498,502),(159,498,503),(501,499,505),(507,506,500),
(507,500,163),(501,505,509),(511,502,510),(503,502,511),(509,505,513),(515,
514,506),(515,506,507),(509,513,517),(457,510,518),(519,510,457),(522,510,
519),(511,510,522),(517,513,524),(525,514,464),(464,514,526),(526,514,529),
(529,514,515),(517,524,531),(457,518,532),(531,524,533),(464,534,525),(531,
533,535),(532,536,457),(535,533,537),(464,538,534),(535,537,539),(457,536,
540),(539,537,541),(542,538,464),(539,541,543),(457,540,544),(543,541,545),
(546,542,464),(543,545,547),(544,548,457),(547,545,549),(464,550,546),(547,
549,461),(457,548,460),(461,549,468),(464,467,550),(461,468,450),(450,468,
454),(450,454,551),(449,552,16),(551,454,553),(554,453,26),(551,553,555),
(16,552,556),(555,553,557),(26,558,554),(555,557,559),(16,556,560),(559,
557,561),(26,562,558),(559,561,563),(560,564,16),(563,561,565),(566,562,
26),(563,565,477),(16,564,478),(477,565,475),(26,476,566),(567,133,570),
(569,573,131),(575,568,572),(579,568,575),(580,581,569),(583,573,569),(569,
585,583),(569,587,585),(589,587,569),(569,591,589),(569,581,593),(569,595,
591),(597,595,569),(569,593,597),(570,133,137),(132,161,138),(131,573,123),
(599,571,136),(571,601,576),(603,571,599),(605,571,603),(607,571,605),(609,
571,607),(609,611,571),(613,601,571),(611,615,571),(571,615,617),(571,617,
613),(138,161,162),(599,136,127),(164,578,577),(160,578,164),(159,619,580),
(621,623,580),(580,623,581),(580,625,621),(580,627,625),(629,627,580),(580,
631,629),(580,619,633),(580,635,631),(637,635,580),(580,633,637),(576,639,
163),(576,641,643),(576,601,641),(643,645,576),(576,645,647),(576,647,649),
(649,651,576),(576,653,639),(576,651,655),(576,655,657),(657,653,576),(503,
659,159),(159,659,619),(163,662,507),(163,639,662),(663,521,666),(665,669,
519),(346,664,668),(338,664,346),(367,665,337),(665,671,673),(673,675,665),
(665,677,671),(679,677,665),(679,665,367),(665,681,669),(683,681,665),(665,
685,683),(665,675,685),(666,521,527),(520,459,528),(519,669,687),(687,689,
519),(522,519,691),(691,519,693),(693,519,695),(519,697,695),(519,689,697),
(526,699,667),(373,344,667),(701,703,667),(667,705,701),(667,703,707),(707,
709,667),(667,709,373),(667,699,711),(667,711,713),(713,715,667),(667,715,
705),(528,459,465),(526,717,699),(719,717,526),(526,529,721),(721,723,526),
(723,725,526),(526,725,727),(526,727,719),(466,339,345),(458,339,466),(729,
731,733),(736,731,729),(734,737,730),(730,739,735),(730,737,739),(733,731,
741),(732,743,742),(745,731,736),(746,747,732),(732,747,743),(733,741,749),
(750,751,734),(734,751,737),(749,741,753),(742,755,754),(742,743,755),(749,
753,757),(758,759,750),(750,759,751),(757,753,761),(754,763,762),(754,755,
763),(757,761,765),(766,767,758),(758,769,759),(758,767,771),(771,769,758),
(765,761,773),(762,775,774),(762,763,777),(777,779,762),(762,779,775),(765,
773,781),(782,783,766),(766,783,767),(781,773,785),(774,787,786),(774,775,
787),(781,785,789),(790,791,782),(782,791,783),(789,785,793),(786,795,794),
(786,787,795),(793,797,789),(789,797,799),(800,791,790),(794,801,798),(794,
795,801),(736,803,745),(804,805,746),(746,805,747),(807,803,736),(735,809,
808),(735,739,809),(236,240,811),(244,240,236),(812,813,235),(235,813,223),
(811,240,815),(239,229,816),(248,240,244),(811,815,817),(818,819,812),(812,
819,813),(817,815,821),(816,823,822),(816,229,823),(817,821,825),(826,827,
818),(818,827,819),(825,821,829),(822,831,830),(822,823,831),(825,829,833),
(834,835,826),(826,835,827),(833,829,837),(830,839,838),(830,831,839),(833,
837,807),(808,841,834),(834,841,835),(807,837,803),(838,843,804),(838,839,
843),(808,809,841),(804,843,805),(244,260,248),(256,260,244),(296,300,288),
(308,300,296),(288,300,292),(312,300,308),(288,292,280),(280,292,284),(280,
284,272),(272,284,276),(272,276,264),(264,276,268),(264,268,256),(256,268,
260),(308,845,312),(846,319,311),(847,845,308),(307,317,848),(799,797,850),
(849,851,800),(800,851,791),(850,797,853),(798,801,854),(850,853,855),(856,
857,849),(849,857,851),(855,853,859),(854,861,860),(854,801,861),(855,859,
863),(864,865,856),(856,865,857),(863,859,867),(860,869,868),(860,861,869),
(863,867,871),(872,873,864),(864,873,865),(871,867,875),(868,877,876),(868,
869,877),(871,875,847),(848,879,872),(872,879,881),(872,881,873),(847,875,
845),(876,883,846),(876,885,883),(876,877,885),(848,317,879),(846,883,319),
(887,889,891),(894,889,887),(895,888,892),(897,893,888),(897,888,895),(891,
889,899),(890,901,900),(903,889,894),(904,905,890),(890,905,901),(891,899,
907),(909,892,908),(895,892,909),(907,899,911),(900,913,912),(900,901,913),
(907,911,915),(917,908,916),(909,908,917),(915,911,919),(912,921,920),(912,
913,921),(915,919,923),(924,925,916),(917,916,927),(916,925,929),(927,916,
929),(923,919,931),(920,933,932),(920,921,935),(920,935,937),(937,933,920),
(923,931,939),(940,941,924),(924,941,925),(939,931,943),(932,945,944),(932,
933,945),(939,943,947),(948,949,940),(940,949,941),(947,943,951),(944,953,
952),(944,945,953),(951,955,947),(947,955,957),(958,949,948),(952,959,956),
(952,953,959),(894,961,903),(962,963,904),(904,963,905),(965,961,894),(967,
966,893),(967,893,897),(226,232,969),(224,232,226),(971,225,970),(67,225,
971),(969,232,973),(231,59,974),(230,232,224),(969,973,975),(977,970,976),
(971,970,977),(975,973,979),(974,981,980),(974,59,981),(975,979,983),(985,
976,984),(977,976,985),(983,979,987),(980,989,988),(980,981,989),(983,987,
991),(993,984,992),(985,984,993),(991,987,995),(988,997,996),(988,989,997),
(991,995,965),(999,992,966),(993,992,999),(965,995,961),(996,1001,962),
(996,997,1001),(999,966,967),(962,1001,963),(224,824,230),(814,824,224),
(810,748,842),(740,748,810),(842,748,806),(744,748,740),(842,806,836),(836,
806,844),(836,844,828),(828,844,840),(828,840,820),(820,840,832),(820,832,
814),(814,832,824),(740,756,744),(738,756,740),(957,955,1003),(1004,1005,
958),(958,1005,949),(1003,955,1007),(956,1009,1008),(956,959,1009),(1003,
1007,1011),(1012,1013,1004),(1004,1013,1005),(1011,1007,1015),(1008,1017,
1016),(1008,1009,1017),(1011,1015,760),(759,1020,1012),(1012,1020,1013),
(760,1015,778),(1016,1021,777),(1016,1017,1021),(760,778,752),(769,1020,
759),(752,778,764),(777,1021,779),(752,764,738),(738,764,756),(600,574,
604),(128,574,600),(604,574,584),(124,574,128),(604,584,606),(606,584,586),
(606,586,608),(608,586,588),(608,588,610),(610,588,590),(610,590,1023),
(1024,611,609),(1023,590,1025),(589,591,1026),(1023,1025,1027),(1028,1029,
1024),(1024,1029,611),(1027,1025,1031),(1026,1033,1032),(1026,591,1033),
(1031,1035,1027),(1027,1035,1037),(1038,1039,1028),(1028,1039,1029),(1032,
1041,1036),(1032,1033,1043),(1032,1043,1041),(128,116,124),(120,116,128),
(80,76,88),(68,76,80),(88,76,84),(60,76,68),(88,84,96),(96,84,92),(96,92,
104),(104,92,100),(104,100,112),(112,100,108),(112,108,120),(120,108,116),
(68,982,60),(972,982,68),(968,906,1000),(898,906,968),(1000,906,964),(902,
906,898),(1000,964,994),(994,964,1002),(994,1002,986),(986,1002,998),(986,
998,978),(978,998,990),(978,990,972),(972,990,982),(898,914,902),(896,914,
898),(1037,1035,1045),(1046,1047,1038),(1038,1047,1039),(1045,1035,1049),
(1036,1051,1050),(1036,1041,1051),(1045,1049,1053),(1054,1055,1046),(1046,
1055,1047),(1053,1049,1057),(1050,1059,1058),(1050,1051,1059),(1053,1057,
918),(917,1062,1054),(1054,1062,1055),(918,1057,936),(1058,1063,935),(1058,
1059,1063),(918,936,910),(927,1062,917),(910,936,922),(937,935,1063),(910,
922,896),(896,922,914),(1065,1067,1069),(1072,1067,1065),(1070,1073,1066),
(1066,1075,1071),(1066,1073,1075),(1069,1067,1077),(1068,1079,1078),(1081,
1067,1072),(1082,1083,1068),(1068,1083,1079),(1069,1077,1085),(1086,1087,
1070),(1070,1087,1073),(1085,1077,1089),(1078,1091,1090),(1078,1079,1091),
(1085,1089,1093),(1094,1095,1086),(1086,1095,1087),(1093,1089,1097),(1090,
1099,1098),(1090,1091,1099),(1093,1097,1101),(1102,1103,1094),(1094,1105,
1095),(1094,1103,1107),(1107,1105,1094),(1101,1097,1109),(1098,1111,1110),
(1098,1099,1113),(1113,1115,1098),(1098,1115,1111),(1101,1109,1117),(1118,
1119,1102),(1102,1119,1103),(1117,1109,1121),(1110,1123,1122),(1110,1111,
1123),(1117,1121,1125),(1126,1127,1118),(1118,1127,1119),(1125,1121,1129),
(1122,1131,1130),(1122,1123,1131),(1129,1133,1125),(1125,1133,1135),(1136,
1127,1126),(1137,1134,1130),(1130,1131,1137),(1072,1139,1081),(1140,1141,
1082),(1082,1141,1083),(1143,1139,1072),(1071,1145,1144),(1071,1075,1145),
(792,796,784),(852,796,792),(784,796,788),(802,796,852),(784,788,768),(768,
788,776),(768,776,772),(772,776,780),(772,780,1147),(1148,1149,771),(771,
1149,769),(1147,780,1151),(779,1021,1152),(1147,1151,1143),(1144,1153,1148),
(1148,1153,1149),(1143,1151,1139),(1152,1155,1140),(1152,1021,1155),(1144,
1145,1153),(1140,1155,1141),(852,862,802),(858,862,852),(318,320,880),(324,
320,318),(880,320,884),(328,320,324),(880,884,882),(882,884,886),(882,886,
874),(874,886,878),(874,878,866),(866,878,870),(866,870,858),(858,870,862),
(324,1157,328),(411,327,1158),(1159,1157,324),(323,414,1160),(1135,1133,
1162),(1161,1163,1136),(1136,1163,1127),(1162,1133,1165),(1137,1166,1134),
(1162,1165,1167),(1168,1169,1161),(1161,1169,1163),(1167,1165,1171),(1173,
1172,1166),(1173,1166,1137),(1167,1171,1175),(1176,1177,1168),(1168,1177,
1169),(1175,1171,1179),(1181,1180,1172),(1181,1172,1173),(1175,1179,1183),
(1184,1185,1176),(1176,1185,1177),(1183,1179,1187),(1189,1188,1180),(1189,
1180,1181),(1183,1187,1159),(1160,1191,1184),(1184,1191,1185),(1159,1187,
1157),(1194,1158,1188),(1194,1188,1189),(1160,414,1195),(1160,1195,1191),
(411,1158,1198),(1198,1158,1194),(1199,1201,1203),(1206,1201,1199),(1207,
1200,1204),(1209,1205,1200),(1209,1200,1207),(1203,1201,1211),(1202,1213,
1212),(1215,1201,1206),(1216,1217,1202),(1202,1217,1213),(1203,1211,1219),
(1221,1204,1220),(1207,1204,1221),(1219,1211,1223),(1212,1225,1224),(1212,
1213,1225),(1219,1223,1227),(1229,1220,1228),(1221,1220,1229),(1227,1223,
1231),(1224,1233,1232),(1224,1225,1233),(1227,1231,1235),(1236,1237,1228),
(1229,1228,1239),(1228,1237,1241),(1239,1228,1241),(1235,1231,1243),(1232,
1245,1244),(1232,1233,1247),(1232,1247,1249),(1249,1245,1232),(1235,1243,
1251),(1252,1253,1236),(1236,1253,1237),(1251,1243,1255),(1244,1257,1256),
(1244,1245,1257),(1251,1255,1259),(1260,1261,1252),(1252,1261,1253),(1259,
1255,1263),(1256,1265,1264),(1256,1257,1265),(1263,1267,1259),(1259,1267,
1269),(1270,1261,1260),(1264,1271,1268),(1264,1265,1271),(1206,1273,1215),
(1274,1275,1216),(1216,1275,1217),(1277,1273,1206),(1279,1278,1205),(1279,
1205,1209),(950,954,942),(1006,954,950),(942,954,946),(960,954,1006),(942,
946,926),(926,946,934),(926,934,930),(930,934,938),(930,938,1281),(1283,
929,1282),(927,929,1283),(1281,938,1285),(937,1063,1286),(1281,1285,1277),
(1287,1282,1278),(1283,1282,1287),(1277,1285,1273),(1286,1289,1274),(1286,
1063,1289),(1287,1278,1279),(1274,1289,1275),(1006,1010,960),(1014,1010,
1006),(1146,1084,1154),(1076,1084,1146),(1154,1084,1142),(1080,1084,1076),
(1154,1142,1150),(1150,1142,1156),(1150,1156,770),(770,1156,1022),(770,
1022,1019),(1019,1022,1018),(1019,1018,1014),(1014,1018,1010),(1076,1092,
1080),(1074,1092,1076),(1269,1267,1291),(1292,1293,1270),(1270,1293,1261),
(1291,1267,1295),(1268,1297,1296),(1268,1271,1297),(1291,1295,1299),(1300,
1301,1292),(1292,1301,1293),(1299,1295,1303),(1296,1305,1304),(1296,1297,
1305),(1299,1303,1096),(1095,1308,1300),(1300,1308,1301),(1096,1303,1114),
(1304,1309,1113),(1304,1305,1309),(1096,1114,1088),(1105,1308,1095),(1088,
1114,1100),(1113,1309,1115),(1088,1100,1074),(1074,1100,1092),(642,624,
644),(602,624,642),(644,624,622),(582,624,602),(644,622,646),(646,622,626),
(646,626,648),(648,626,628),(648,628,650),(650,628,630),(650,630,1311),
(1312,1313,649),(649,1313,651),(1311,630,1315),(629,1317,1316),(629,631,
1317),(1311,1315,1319),(1320,1321,1312),(1312,1321,1313),(1319,1315,1323),
(1316,1325,1324),(1316,1317,1325),(1323,1327,1319),(1319,1327,1329),(1330,
1321,1320),(1324,1331,1328),(1324,1325,1331),(602,594,582),(614,594,602),
(1040,1044,1030),(1048,1044,1040),(1030,1044,1034),(1042,1044,1048),(1030,
1034,612),(612,1034,592),(612,592,616),(616,592,596),(616,596,618),(618,
596,598),(618,598,614),(614,598,594),(1048,1052,1042),(1056,1052,1048),
(1280,1218,1288),(1210,1218,1280),(1288,1218,1276),(1214,1218,1210),(1288,
1276,1284),(1284,1276,1290),(1284,1290,928),(928,1290,1064),(928,1064,1061),
(1061,1064,1060),(1061,1060,1056),(1056,1060,1052),(1210,1226,1214),(1208,
1226,1210),(1329,1327,1333),(1334,1335,1330),(1330,1335,1321),(1333,1327,
1337),(1328,1339,1338),(1328,1331,1339),(1333,1337,1341),(1342,1343,1334),
(1334,1343,1335),(1341,1337,1345),(1338,1347,1346),(1338,1339,1347),(1341,
1345,1230),(1229,1350,1342),(1342,1350,1343),(1230,1345,1248),(1346,1351,
1247),(1346,1347,1351),(1230,1248,1222),(1239,1350,1229),(1222,1248,1234),
(1249,1247,1351),(1222,1234,1208),(1208,1234,1226),(1353,1355,1357),(1360,
1355,1353),(1358,1361,1354),(1354,1363,1359),(1354,1361,1363),(1357,1355,
1365),(1356,1367,1366),(1369,1355,1360),(1370,1371,1356),(1356,1371,1367),
(1357,1365,1373),(1374,1375,1358),(1358,1375,1361),(1373,1365,1377),(1366,
1379,1378),(1366,1367,1379),(1373,1377,702),(701,705,1374),(1374,705,1375),
(702,1377,674),(1378,1381,673),(1378,1379,1381),(702,674,704),(704,674,
672),(673,1381,675),(704,672,708),(708,672,678),(708,678,710),(710,678,
680),(680,368,710),(710,368,374),(1360,1383,1369),(1384,1385,1370),(1370,
1385,1371),(1387,1383,1360),(1359,1389,1388),(1359,1363,1389),(1128,1132,
1120),(1164,1132,1128),(1120,1132,1124),(1138,1132,1164),(1120,1124,1104),
(1104,1124,1112),(1104,1112,1108),(1108,1112,1116),(1108,1116,1391),(1392,
1393,1107),(1107,1393,1105),(1391,1116,1395),(1115,1309,1396),(1391,1395,
1387),(1388,1397,1392),(1392,1397,1393),(1387,1395,1383),(1396,1399,1384),
(1396,1309,1399),(1388,1389,1397),(1384,1399,1385),(1164,1174,1138),(1170,
1174,1164),(413,412,1196),(408,412,413),(1196,412,1197),(402,412,408),(1196,
1197,1192),(1192,1197,1193),(1192,1193,1186),(1186,1193,1190),(1186,1190,
1178),(1178,1190,1182),(1178,1182,1170),(1170,1182,1174),(408,404,402),
(410,404,408),(374,368,372),(372,368,366),(372,366,382),(382,366,378),(382,
378,390),(390,378,386),(390,386,398),(398,386,394),(398,394,410),(410,394,
404),(1401,1403,1405),(1408,1403,1401),(1409,1402,1406),(1411,1407,1402),
(1411,1402,1409),(1405,1403,1413),(1404,1415,1414),(1417,1403,1408),(1418,
1419,1404),(1404,1419,1415),(1405,1413,1421),(1423,1406,1422),(1409,1406,
1423),(1421,1413,1425),(1414,1427,1426),(1414,1415,1427),(1421,1425,1429),
(1431,1422,1430),(1423,1422,1431),(1429,1425,1433),(1426,1435,1434),(1426,
1427,1435),(1429,1433,1437),(1439,1430,1438),(1431,1430,1439),(1437,1433,
1441),(1434,1443,1442),(1434,1435,1443),(1437,1441,718),(719,1438,717),
(1439,1438,719),(718,1441,688),(1442,1445,687),(1442,1443,1445),(718,688,
700),(700,688,670),(687,1445,689),(670,682,700),(700,682,712),(1408,1447,
1417),(1448,1449,1418),(1418,1449,1419),(1451,1447,1408),(1453,1452,1407),
(1453,1407,1411),(1262,1266,1254),(1294,1266,1262),(1254,1266,1258),(1272,
1266,1294),(1254,1258,1238),(1238,1258,1246),(1238,1246,1242),(1242,1246,
1250),(1242,1250,1455),(1457,1241,1456),(1239,1241,1457),(1455,1250,1459),
(1249,1351,1460),(1455,1459,1451),(1461,1456,1452),(1457,1456,1461),(1451,
1459,1447),(1460,1463,1448),(1460,1351,1463),(1461,1452,1453),(1448,1463,
1449),(1294,1298,1272),(1302,1298,1294),(1390,1372,1398),(1364,1372,1390),
(1398,1372,1386),(1368,1372,1364),(1398,1386,1394),(1394,1386,1400),(1394,
1400,1106),(1106,1400,1310),(1106,1310,1307),(1307,1310,1306),(1307,1306,
1302),(1302,1306,1298),(1364,1380,1368),(1362,1380,1364),(712,682,714),
(714,682,684),(714,684,716),(716,684,686),(716,686,706),(706,686,676),(706,
676,1376),(1376,676,1382),(1376,1382,1362),(1362,1382,1380),(661,660,508),
(640,660,661),(508,660,504),(620,660,640),(508,504,516),(516,504,512),(516,
512,530),(530,512,523),(530,523,722),(722,523,692),(722,692,724),(724,692,
694),(724,694,726),(726,694,696),(696,698,726),(726,698,728),(640,634,620),
(654,634,640),(1322,1326,1314),(1336,1326,1322),(1314,1326,1318),(1332,
1326,1336),(1314,1318,652),(652,1318,632),(652,632,656),(656,632,636),(656,
636,658),(658,636,638),(658,638,654),(654,638,634),(1336,1340,1332),(1344,
1340,1336),(1454,1420,1462),(1412,1420,1454),(1462,1420,1450),(1416,1420,
1412),(1462,1450,1458),(1458,1450,1464),(1458,1464,1240),(1240,1464,1352),
(1240,1352,1349),(1349,1352,1348),(1349,1348,1344),(1344,1348,1340),(1412,
1428,1416),(1410,1428,1412),(728,698,720),(720,698,690),(720,690,1440),
(1440,690,1446),(1440,1446,1432),(1432,1446,1444),(1432,1444,1424),(1424,
1444,1436),(1424,1436,1410),(1410,1436,1428),(17,11,28),(186,18,27),(195,
18,186),(28,11,22),(10,191,23),(23,191,178),(179,196,185),(190,196,179)),
());
#28=COORDINATES_LIST('',720,((-0.03002154,-0.06458364,0.),(-0.03002154,
-0.06458364,0.003),(-0.03002154,0.02502556,0.),(-0.03002154,0.02502556,
0.003),(-0.02924043,-0.06188121,0.),(-0.02924043,-0.06188121,0.003),(-0.0291825,
-0.0623212,0.),(-0.0291825,-0.0623212,0.003),(-0.0291825,-0.06144122,0.),
(-0.0291825,-0.06144122,0.003),(-0.02912685,0.02217542,0.),(-0.02912685,
0.02217542,0.003),(-0.02906892,0.02173543,0.),(-0.02906892,0.02173543,0.003),
(-0.02906892,0.02261541,0.),(-0.02906892,0.02261541,0.003),(-0.02901267,
-0.06273121,0.),(-0.02901267,-0.06273121,0.003),(-0.02901267,-0.06103121,
0.),(-0.02901267,-0.06103121,0.003),(-0.02889909,0.02132542,0.),(-0.02889909,
0.02132542,0.003),(-0.02889909,0.02302542,0.),(-0.02889909,0.02302542,0.003),
(-0.02874251,-0.06308329,0.),(-0.02874251,-0.06308329,0.003),(-0.02874251,
-0.06067913,0.),(-0.02874251,-0.06067913,0.003),(-0.02862893,0.02097334,
0.),(-0.02862893,0.02097334,0.003),(-0.02862893,0.0233775,0.),(-0.02862893,
0.0233775,0.003),(-0.02839043,-0.06335345,0.),(-0.02839043,-0.06335345,
0.003),(-0.02839043,-0.06040897,0.),(-0.02839043,-0.06040897,0.003),(-0.02827685,
0.02070317,0.),(-0.02827685,0.02070317,0.003),(-0.02827685,0.02364766,0.),
(-0.02827685,0.02364766,0.003),(-0.02798042,-0.06352328,0.),(-0.02798042,
-0.06352328,0.003),(-0.02798042,-0.06023913,0.),(-0.02798042,-0.06023913,
0.003),(-0.02786684,0.02053334,0.),(-0.02786684,0.02053334,0.003),(-0.02786684,
0.02381749,0.),(-0.02786684,0.02381749,0.003),(-0.02754043,-0.06358121,
0.),(-0.02754043,-0.06358121,0.003),(-0.02754043,-0.06018121,0.),(-0.02754043,
-0.06018121,0.003),(-0.02742685,0.02047542,0.),(-0.02742685,0.02047542,
0.003),(-0.02742685,0.02387542,0.),(-0.02742685,0.02387542,0.003),(-0.02710043,
-0.06352328,0.),(-0.02710043,-0.06352328,0.003),(-0.02710043,-0.06023913,
0.),(-0.02710043,-0.06023913,0.003),(-0.02698686,0.02053334,0.),(-0.02698686,
0.02053334,0.003),(-0.02698686,0.02381749,0.),(-0.02698686,0.02381749,0.003),
(-0.02669043,-0.06335345,0.),(-0.02669043,-0.06335345,0.003),(-0.02669043,
-0.06040897,0.),(-0.02669043,-0.06040897,0.003),(-0.02657685,0.02070317,
0.),(-0.02657685,0.02070317,0.003),(-0.02657685,0.02364766,0.),(-0.02657685,
0.02364766,0.003),(-0.02633834,-0.06308329,0.),(-0.02633834,-0.06308329,
0.003),(-0.02633834,-0.06067913,0.),(-0.02633834,-0.06067913,0.003),(-0.02622477,
0.02097334,0.),(-0.02622477,0.02097334,0.003),(-0.02622477,0.0233775,0.),
(-0.02622477,0.0233775,0.003),(-0.02606818,-0.06273121,0.),(-0.02606818,
-0.06273121,0.003),(-0.02606818,-0.06103121,0.),(-0.02606818,-0.06103121,
0.003),(-0.02595461,0.02132542,0.),(-0.02595461,0.02132542,0.003),(-0.02595461,
0.02302542,0.),(-0.02595461,0.02302542,0.003),(-0.02589835,-0.0623212,0.),
(-0.02589835,-0.0623212,0.003),(-0.02589835,-0.06144122,0.),(-0.02589835,
-0.06144122,0.003),(-0.02584043,-0.06188121,0.),(-0.02584043,-0.06188121,
0.003),(-0.02578478,0.02173543,0.),(-0.02578478,0.02173543,0.003),(-0.02578478,
0.02261541,0.),(-0.02578478,0.02261541,0.003),(-0.02572685,0.02217542,0.),
(-0.02572685,0.02217542,0.003),(-0.01567878,-0.0363744,0.),(-0.01567878,
-0.0363744,0.003),(-0.01567878,-0.0213744,0.),(-0.01567878,-0.0213744,0.003),
(-0.00167878,-0.0363744,0.),(-0.00167878,-0.0363744,0.003),(-0.00167878,
-0.0213744,0.),(-0.00167878,-0.0213744,0.003),(0.002525,-0.054125,0.),(0.002525,
-0.054125,0.003),(0.002525,-0.041125,0.),(0.002525,-0.041125,0.003),(0.002525,
-0.035075,0.),(0.002525,-0.035075,0.003),(0.002525,-0.022075,0.),(0.002525,
-0.022075,0.003),(0.002525,-0.016025,0.),(0.002525,-0.016025,0.003),(0.002525,
-0.003025,0.),(0.002525,-0.003025,0.003),(0.00254204,-0.05425441,0.),(0.00254204,
-0.05425441,0.003),(0.00254204,-0.04099559,0.),(0.00254204,-0.04099559,
0.003),(0.00254204,-0.03520441,0.),(0.00254204,-0.03520441,0.003),(0.00254204,
-0.02194559,0.),(0.00254204,-0.02194559,0.003),(0.00254204,-0.01615441,
0.),(0.00254204,-0.01615441,0.003),(0.00254204,-0.00289559,0.),(0.00254204,
-0.00289559,0.003),(0.00259199,-0.054375,0.),(0.00259199,-0.054375,0.003),
(0.00259199,-0.040875,0.),(0.00259199,-0.040875,0.003),(0.00259199,-0.035325,
0.),(0.00259199,-0.035325,0.003),(0.00259199,-0.021825,0.),(0.00259199,
-0.021825,0.003),(0.00259199,-0.016275,0.),(0.00259199,-0.016275,0.003),
(0.00259199,-0.002775,0.),(0.00259199,-0.002775,0.003),(0.00267145,-0.05447855,
0.),(0.00267145,-0.05447855,0.003),(0.00267145,-0.04077145,0.),(0.00267145,
-0.04077145,0.003),(0.00267145,-0.03542855,0.),(0.00267145,-0.03542855,
0.003),(0.00267145,-0.02172145,0.),(0.00267145,-0.02172145,0.003),(0.00267145,
-0.01637855,0.),(0.00267145,-0.01637855,0.003),(0.00267145,-0.00267145,
0.),(0.00267145,-0.00267145,0.003),(0.002775,-0.05455801,0.),(0.002775,
-0.05455801,0.003),(0.002775,-0.04069199,0.),(0.002775,-0.04069199,0.003),
(0.002775,-0.03550801,0.),(0.002775,-0.03550801,0.003),(0.002775,-0.02164199,
0.),(0.002775,-0.02164199,0.003),(0.002775,-0.01645801,0.),(0.002775,-0.01645801,
0.003),(0.002775,-0.00259199,0.),(0.002775,-0.00259199,0.003),(0.00289559,
-0.05460796,0.),(0.00289559,-0.05460796,0.003),(0.00289559,-0.04064204,
0.),(0.00289559,-0.04064204,0.003),(0.00289559,-0.03555796,0.),(0.00289559,
-0.03555796,0.003),(0.00289559,-0.02159204,0.),(0.00289559,-0.02159204,
0.003),(0.00289559,-0.01650796,0.),(0.00289559,-0.01650796,0.003),(0.00289559,
-0.00254204,0.),(0.00289559,-0.00254204,0.003),(0.003025,-0.054625,0.),
(0.003025,-0.054625,0.003),(0.003025,-0.040625,0.),(0.003025,-0.040625,
0.003),(0.003025,-0.035575,0.),(0.003025,-0.035575,0.003),(0.003025,-0.021575,
0.),(0.003025,-0.021575,0.003),(0.003025,-0.016525,0.),(0.003025,-0.016525,
0.003),(0.003025,-0.002525,0.),(0.003025,-0.002525,0.003),(0.00596369,0.00339898,
0.),(0.00596369,0.00339898,0.003),(0.00596369,0.01186565,0.),(0.00596369,
0.01186565,0.003),(0.016025,-0.054625,0.),(0.016025,-0.054625,0.003),(0.016025,
-0.040625,0.),(0.016025,-0.040625,0.003),(0.016025,-0.035575,0.),(0.016025,
-0.035575,0.003),(0.016025,-0.021575,0.),(0.016025,-0.021575,0.003),(0.016025,
-0.016525,0.),(0.016025,-0.016525,0.003),(0.016025,-0.002525,0.),(0.016025,
-0.002525,0.003),(0.01615441,-0.05460796,0.),(0.01615441,-0.05460796,0.003),
(0.01615441,-0.04064204,0.),(0.01615441,-0.04064204,0.003),(0.01615441,
-0.03555796,0.),(0.01615441,-0.03555796,0.003),(0.01615441,-0.02159204,
0.),(0.01615441,-0.02159204,0.003),(0.01615441,-0.01650796,0.),(0.01615441,
-0.01650796,0.003),(0.01615441,-0.00254204,0.),(0.01615441,-0.00254204,
0.003),(0.016275,-0.05455801,0.),(0.016275,-0.05455801,0.003),(0.016275,
-0.04069199,0.),(0.016275,-0.04069199,0.003),(0.016275,-0.03550801,0.),
(0.016275,-0.03550801,0.003),(0.016275,-0.02164199,0.),(0.016275,-0.02164199,
0.003),(0.016275,-0.01645801,0.),(0.016275,-0.01645801,0.003),(0.016275,
-0.00259199,0.),(0.016275,-0.00259199,0.003),(0.01637855,-0.05447855,0.),
(0.01637855,-0.05447855,0.003),(0.01637855,-0.04077145,0.),(0.01637855,
-0.04077145,0.003),(0.01637855,-0.03542855,0.),(0.01637855,-0.03542855,
0.003),(0.01637855,-0.02172145,0.),(0.01637855,-0.02172145,0.003),(0.01637855,
-0.01637855,0.),(0.01637855,-0.01637855,0.003),(0.01637855,-0.00267145,
0.),(0.01637855,-0.00267145,0.003),(0.01645801,-0.054375,0.),(0.01645801,
-0.054375,0.003),(0.01645801,-0.040875,0.),(0.01645801,-0.040875,0.003),
(0.01645801,-0.035325,0.),(0.01645801,-0.035325,0.003),(0.01645801,-0.021825,
0.),(0.01645801,-0.021825,0.003),(0.01645801,-0.016275,0.),(0.01645801,
-0.016275,0.003),(0.01645801,-0.002775,0.),(0.01645801,-0.002775,0.003),
(0.01650796,-0.05425441,0.),(0.01650796,-0.05425441,0.003),(0.01650796,
-0.04099559,0.),(0.01650796,-0.04099559,0.003),(0.01650796,-0.03520441,
0.),(0.01650796,-0.03520441,0.003),(0.01650796,-0.02194559,0.),(0.01650796,
-0.02194559,0.003),(0.01650796,-0.01615441,0.),(0.01650796,-0.01615441,
0.003),(0.01650796,-0.00289559,0.),(0.01650796,-0.00289559,0.003),(0.016525,
-0.054125,0.),(0.016525,-0.054125,0.003),(0.016525,-0.041125,0.),(0.016525,
-0.041125,0.003),(0.016525,-0.035075,0.),(0.016525,-0.035075,0.003),(0.016525,
-0.022075,0.),(0.016525,-0.022075,0.003),(0.016525,-0.016025,0.),(0.016525,
-0.016025,0.003),(0.016525,-0.003025,0.),(0.016525,-0.003025,0.003),(0.021575,
-0.054125,0.),(0.021575,-0.054125,0.003),(0.021575,-0.041125,0.),(0.021575,
-0.041125,0.003),(0.021575,-0.035075,0.),(0.021575,-0.035075,0.003),(0.021575,
-0.022075,0.),(0.021575,-0.022075,0.003),(0.021575,-0.016025,0.),(0.021575,
-0.016025,0.003),(0.021575,-0.003025,0.),(0.021575,-0.003025,0.003),(0.02159204,
-0.05425441,0.),(0.02159204,-0.05425441,0.003),(0.02159204,-0.04099559,
0.),(0.02159204,-0.04099559,0.003),(0.02159204,-0.03520441,0.),(0.02159204,
-0.03520441,0.003),(0.02159204,-0.02194559,0.),(0.02159204,-0.02194559,
0.003),(0.02159204,-0.01615441,0.),(0.02159204,-0.01615441,0.003),(0.02159204,
-0.00289559,0.),(0.02159204,-0.00289559,0.003),(0.02164199,-0.054375,0.),
(0.02164199,-0.054375,0.003),(0.02164199,-0.040875,0.),(0.02164199,-0.040875,
0.003),(0.02164199,-0.035325,0.),(0.02164199,-0.035325,0.003),(0.02164199,
-0.021825,0.),(0.02164199,-0.021825,0.003),(0.02164199,-0.016275,0.),(0.02164199,
-0.016275,0.003),(0.02164199,-0.002775,0.),(0.02164199,-0.002775,0.003),
(0.02172145,-0.05447855,0.),(0.02172145,-0.05447855,0.003),(0.02172145,
-0.04077145,0.),(0.02172145,-0.04077145,0.003),(0.02172145,-0.03542855,
0.),(0.02172145,-0.03542855,0.003),(0.02172145,-0.02172145,0.),(0.02172145,
-0.02172145,0.003),(0.02172145,-0.01637855,0.),(0.02172145,-0.01637855,
0.003),(0.02172145,-0.00267145,0.),(0.02172145,-0.00267145,0.003),(0.021825,
-0.05455801,0.),(0.021825,-0.05455801,0.003),(0.021825,-0.04069199,0.),
(0.021825,-0.04069199,0.003),(0.021825,-0.03550801,0.),(0.021825,-0.03550801,
0.003),(0.021825,-0.02164199,0.),(0.021825,-0.02164199,0.003),(0.021825,
-0.01645801,0.),(0.021825,-0.01645801,0.003),(0.021825,-0.00259199,0.),
(0.021825,-0.00259199,0.003),(0.02194559,-0.05460796,0.),(0.02194559,-0.05460796,
0.003),(0.02194559,-0.04064204,0.),(0.02194559,-0.04064204,0.003),(0.02194559,
-0.03555796,0.),(0.02194559,-0.03555796,0.003),(0.02194559,-0.02159204,
0.),(0.02194559,-0.02159204,0.003),(0.02194559,-0.01650796,0.),(0.02194559,
-0.01650796,0.003),(0.02194559,-0.00254204,0.),(0.02194559,-0.00254204,
0.003),(0.022075,-0.054625,0.),(0.022075,-0.054625,0.003),(0.022075,-0.040625,
0.),(0.022075,-0.040625,0.003),(0.022075,-0.035575,0.),(0.022075,-0.035575,
0.003),(0.022075,-0.021575,0.),(0.022075,-0.021575,0.003),(0.022075,-0.016525,
0.),(0.022075,-0.016525,0.003),(0.022075,-0.002525,0.),(0.022075,-0.002525,
0.003),(0.035075,-0.054625,0.),(0.035075,-0.054625,0.003),(0.035075,-0.040625,
0.),(0.035075,-0.040625,0.003),(0.035075,-0.035575,0.),(0.035075,-0.035575,
0.003),(0.035075,-0.021575,0.),(0.035075,-0.021575,0.003),(0.035075,-0.016525,
0.),(0.035075,-0.016525,0.003),(0.035075,-0.002525,0.),(0.035075,-0.002525,
0.003),(0.03520441,-0.05460796,0.),(0.03520441,-0.05460796,0.003),(0.03520441,
-0.04064204,0.),(0.03520441,-0.04064204,0.003),(0.03520441,-0.03555796,
0.),(0.03520441,-0.03555796,0.003),(0.03520441,-0.02159204,0.),(0.03520441,
-0.02159204,0.003),(0.03520441,-0.01650796,0.),(0.03520441,-0.01650796,
0.003),(0.03520441,-0.00254204,0.),(0.03520441,-0.00254204,0.003),(0.035325,
-0.05455801,0.),(0.035325,-0.05455801,0.003),(0.035325,-0.04069199,0.),
(0.035325,-0.04069199,0.003),(0.035325,-0.03550801,0.),(0.035325,-0.03550801,
0.003),(0.035325,-0.02164199,0.),(0.035325,-0.02164199,0.003),(0.035325,
-0.01645801,0.),(0.035325,-0.01645801,0.003),(0.035325,-0.00259199,0.),
(0.035325,-0.00259199,0.003),(0.03542855,-0.05447855,0.),(0.03542855,-0.05447855,
0.003),(0.03542855,-0.04077145,0.),(0.03542855,-0.04077145,0.003),(0.03542855,
-0.03542855,0.),(0.03542855,-0.03542855,0.003),(0.03542855,-0.02172145,
0.),(0.03542855,-0.02172145,0.003),(0.03542855,-0.01637855,0.),(0.03542855,
-0.01637855,0.003),(0.03542855,-0.00267145,0.),(0.03542855,-0.00267145,
0.003),(0.03550801,-0.054375,0.),(0.03550801,-0.054375,0.003),(0.03550801,
-0.040875,0.),(0.03550801,-0.040875,0.003),(0.03550801,-0.035325,0.),(0.03550801,
-0.035325,0.003),(0.03550801,-0.021825,0.),(0.03550801,-0.021825,0.003),
(0.03550801,-0.016275,0.),(0.03550801,-0.016275,0.003),(0.03550801,-0.002775,
0.),(0.03550801,-0.002775,0.003),(0.03555796,-0.05425441,0.),(0.03555796,
-0.05425441,0.003),(0.03555796,-0.04099559,0.),(0.03555796,-0.04099559,
0.003),(0.03555796,-0.03520441,0.),(0.03555796,-0.03520441,0.003),(0.03555796,
-0.02194559,0.),(0.03555796,-0.02194559,0.003),(0.03555796,-0.01615441,
0.),(0.03555796,-0.01615441,0.003),(0.03555796,-0.00289559,0.),(0.03555796,
-0.00289559,0.003),(0.035575,-0.054125,0.),(0.035575,-0.054125,0.003),(0.035575,
-0.041125,0.),(0.035575,-0.041125,0.003),(0.035575,-0.035075,0.),(0.035575,
-0.035075,0.003),(0.035575,-0.022075,0.),(0.035575,-0.022075,0.003),(0.035575,
-0.016025,0.),(0.035575,-0.016025,0.003),(0.035575,-0.003025,0.),(0.035575,
-0.003025,0.003),(0.03983035,0.00339898,0.),(0.03983035,0.00339898,0.003),
(0.03983035,0.01186565,0.),(0.03983035,0.01186565,0.003),(0.040625,-0.054125,
0.),(0.040625,-0.054125,0.003),(0.040625,-0.041125,0.),(0.040625,-0.041125,
0.003),(0.040625,-0.035075,0.),(0.040625,-0.035075,0.003),(0.040625,-0.022075,
0.),(0.040625,-0.022075,0.003),(0.040625,-0.016025,0.),(0.040625,-0.016025,
0.003),(0.040625,-0.003025,0.),(0.040625,-0.003025,0.003),(0.04064204,-0.05425441,
0.),(0.04064204,-0.05425441,0.003),(0.04064204,-0.04099559,0.),(0.04064204,
-0.04099559,0.003),(0.04064204,-0.03520441,0.),(0.04064204,-0.03520441,
0.003),(0.04064204,-0.02194559,0.),(0.04064204,-0.02194559,0.003),(0.04064204,
-0.01615441,0.),(0.04064204,-0.01615441,0.003),(0.04064204,-0.00289559,
0.),(0.04064204,-0.00289559,0.003),(0.04069199,-0.054375,0.),(0.04069199,
-0.054375,0.003),(0.04069199,-0.040875,0.),(0.04069199,-0.040875,0.003),
(0.04069199,-0.035325,0.),(0.04069199,-0.035325,0.003),(0.04069199,-0.021825,
0.),(0.04069199,-0.021825,0.003),(0.04069199,-0.016275,0.),(0.04069199,
-0.016275,0.003),(0.04069199,-0.002775,0.),(0.04069199,-0.002775,0.003),
(0.04077145,-0.05447855,0.),(0.04077145,-0.05447855,0.003),(0.04077145,
-0.04077145,0.),(0.04077145,-0.04077145,0.003),(0.04077145,-0.03542855,
0.),(0.04077145,-0.03542855,0.003),(0.04077145,-0.02172145,0.),(0.04077145,
-0.02172145,0.003),(0.04077145,-0.01637855,0.),(0.04077145,-0.01637855,
0.003),(0.04077145,-0.00267145,0.),(0.04077145,-0.00267145,0.003),(0.040875,
-0.05455801,0.),(0.040875,-0.05455801,0.003),(0.040875,-0.04069199,0.),
(0.040875,-0.04069199,0.003),(0.040875,-0.03550801,0.),(0.040875,-0.03550801,
0.003),(0.040875,-0.02164199,0.),(0.040875,-0.02164199,0.003),(0.040875,
-0.01645801,0.),(0.040875,-0.01645801,0.003),(0.040875,-0.00259199,0.),
(0.040875,-0.00259199,0.003),(0.04099559,-0.05460796,0.),(0.04099559,-0.05460796,
0.003),(0.04099559,-0.04064204,0.),(0.04099559,-0.04064204,0.003),(0.04099559,
-0.03555796,0.),(0.04099559,-0.03555796,0.003),(0.04099559,-0.02159204,
0.),(0.04099559,-0.02159204,0.003),(0.04099559,-0.01650796,0.),(0.04099559,
-0.01650796,0.003),(0.04099559,-0.00254204,0.),(0.04099559,-0.00254204,
0.003),(0.041125,-0.054625,0.),(0.041125,-0.054625,0.003),(0.041125,-0.040625,
0.),(0.041125,-0.040625,0.003),(0.041125,-0.035575,0.),(0.041125,-0.035575,
0.003),(0.041125,-0.021575,0.),(0.041125,-0.021575,0.003),(0.041125,-0.016525,
0.),(0.041125,-0.016525,0.003),(0.041125,-0.002525,0.),(0.041125,-0.002525,
0.003),(0.054125,-0.054625,0.),(0.054125,-0.054625,0.003),(0.054125,-0.040625,
0.),(0.054125,-0.040625,0.003),(0.054125,-0.035575,0.),(0.054125,-0.035575,
0.003),(0.054125,-0.021575,0.),(0.054125,-0.021575,0.003),(0.054125,-0.016525,
0.),(0.054125,-0.016525,0.003),(0.054125,-0.002525,0.),(0.054125,-0.002525,
0.003),(0.05425441,-0.05460796,0.),(0.05425441,-0.05460796,0.003),(0.05425441,
-0.04064204,0.),(0.05425441,-0.04064204,0.003),(0.05425441,-0.03555796,
0.),(0.05425441,-0.03555796,0.003),(0.05425441,-0.02159204,0.),(0.05425441,
-0.02159204,0.003),(0.05425441,-0.01650796,0.),(0.05425441,-0.01650796,
0.003),(0.05425441,-0.00254204,0.),(0.05425441,-0.00254204,0.003),(0.054375,
-0.05455801,0.),(0.054375,-0.05455801,0.003),(0.054375,-0.04069199,0.),
(0.054375,-0.04069199,0.003),(0.054375,-0.03550801,0.),(0.054375,-0.03550801,
0.003),(0.054375,-0.02164199,0.),(0.054375,-0.02164199,0.003),(0.054375,
-0.01645801,0.),(0.054375,-0.01645801,0.003),(0.054375,-0.00259199,0.),
(0.054375,-0.00259199,0.003),(0.05447855,-0.05447855,0.),(0.05447855,-0.05447855,
0.003),(0.05447855,-0.04077145,0.),(0.05447855,-0.04077145,0.003),(0.05447855,
-0.03542855,0.),(0.05447855,-0.03542855,0.003),(0.05447855,-0.02172145,
0.),(0.05447855,-0.02172145,0.003),(0.05447855,-0.01637855,0.),(0.05447855,
-0.01637855,0.003),(0.05447855,-0.00267145,0.),(0.05447855,-0.00267145,
0.003),(0.05455801,-0.054375,0.),(0.05455801,-0.054375,0.003),(0.05455801,
-0.040875,0.),(0.05455801,-0.040875,0.003),(0.05455801,-0.035325,0.),(0.05455801,
-0.035325,0.003),(0.05455801,-0.021825,0.),(0.05455801,-0.021825,0.003),
(0.05455801,-0.016275,0.),(0.05455801,-0.016275,0.003),(0.05455801,-0.002775,
0.),(0.05455801,-0.002775,0.003),(0.05460796,-0.05425441,0.),(0.05460796,
-0.05425441,0.003),(0.05460796,-0.04099559,0.),(0.05460796,-0.04099559,
0.003),(0.05460796,-0.03520441,0.),(0.05460796,-0.03520441,0.003),(0.05460796,
-0.02194559,0.),(0.05460796,-0.02194559,0.003),(0.05460796,-0.01615441,
0.),(0.05460796,-0.01615441,0.003),(0.05460796,-0.00289559,0.),(0.05460796,
-0.00289559,0.003),(0.054625,-0.054125,0.),(0.054625,-0.054125,0.003),(0.054625,
-0.041125,0.),(0.054625,-0.041125,0.003),(0.054625,-0.035075,0.),(0.054625,
-0.035075,0.003),(0.054625,-0.022075,0.),(0.054625,-0.022075,0.003),(0.054625,
-0.016025,0.),(0.054625,-0.016025,0.003),(0.054625,-0.003025,0.),(0.054625,
-0.003025,0.003),(0.06220871,0.02232417,0.),(0.06220871,0.02232417,0.003),
(0.06226663,0.02188418,0.),(0.06226663,0.02188418,0.003),(0.06226663,0.02276417,
0.),(0.06226663,0.02276417,0.003),(0.06236058,-0.0620759,0.),(0.06236058,
-0.0620759,0.003),(0.0624185,-0.06251589,0.),(0.0624185,-0.06251589,0.003),
(0.0624185,-0.06163591,0.),(0.0624185,-0.06163591,0.003),(0.06243646,0.02147417,
0.),(0.06243646,0.02147417,0.003),(0.06243646,0.02317417,0.),(0.06243646,
0.02317417,0.003),(0.06258833,-0.0629259,0.),(0.06258833,-0.0629259,0.003),
(0.06258833,-0.0612259,0.),(0.06258833,-0.0612259,0.003),(0.06270663,0.02112209,
0.),(0.06270663,0.02112209,0.003),(0.06270663,0.02352625,0.),(0.06270663,
0.02352625,0.003),(0.06285849,-0.06327798,0.),(0.06285849,-0.06327798,0.003),
(0.06285849,-0.06087382,0.),(0.06285849,-0.06087382,0.003),(0.06305871,
0.02085193,0.),(0.06305871,0.02085193,0.003),(0.06305871,0.02379642,0.),
(0.06305871,0.02379642,0.003),(0.06321058,-0.06354814,0.),(0.06321058,-0.06354814,
0.003),(0.06321058,-0.06060366,0.),(0.06321058,-0.06060366,0.003),(0.06346872,
0.0206821,0.),(0.06346872,0.0206821,0.003),(0.06346872,0.02396625,0.),(0.06346872,
0.02396625,0.003),(0.06362058,-0.06371797,0.),(0.06362058,-0.06371797,0.003),
(0.06362058,-0.06043382,0.),(0.06362058,-0.06043382,0.003),(0.06390871,
0.02062417,0.),(0.06390871,0.02062417,0.003),(0.06390871,0.02402417,0.),
(0.06390871,0.02402417,0.003),(0.06406058,-0.0637759,0.),(0.06406058,-0.0637759,
0.003),(0.06406058,-0.0603759,0.),(0.06406058,-0.0603759,0.003),(0.0643487,
0.0206821,0.),(0.0643487,0.0206821,0.003),(0.0643487,0.02396625,0.),(0.0643487,
0.02396625,0.003),(0.06450057,-0.06371797,0.),(0.06450057,-0.06371797,0.003),
(0.06450057,-0.06043382,0.),(0.06450057,-0.06043382,0.003),(0.06475871,
0.02085193,0.),(0.06475871,0.02085193,0.003),(0.06475871,0.02379642,0.),
(0.06475871,0.02379642,0.003),(0.06491058,-0.06354814,0.),(0.06491058,-0.06354814,
0.003),(0.06491058,-0.06060366,0.),(0.06491058,-0.06060366,0.003),(0.06511079,
0.02112209,0.),(0.06511079,0.02112209,0.003),(0.06511079,0.02352625,0.),
(0.06511079,0.02352625,0.003),(0.06526266,-0.06327798,0.),(0.06526266,-0.06327798,
0.003),(0.06526266,-0.06087382,0.),(0.06526266,-0.06087382,0.003),(0.06538095,
0.02147417,0.),(0.06538095,0.02147417,0.003),(0.06538095,0.02317417,0.),
(0.06538095,0.02317417,0.003),(0.06553282,-0.0629259,0.),(0.06553282,-0.0629259,
0.003),(0.06553282,-0.0612259,0.),(0.06553282,-0.0612259,0.003),(0.06555078,
0.02188418,0.),(0.06555078,0.02188418,0.003),(0.06555078,0.02276417,0.),
(0.06555078,0.02276417,0.003),(0.06560871,0.02232417,0.),(0.06560871,0.02232417,
0.003),(0.06570265,-0.06251589,0.),(0.06570265,-0.06251589,0.003),(0.06570265,
-0.06163591,0.),(0.06570265,-0.06163591,0.003),(0.06576058,-0.0620759,0.),
(0.06576058,-0.0620759,0.003),(0.066793,-0.06458364,0.),(0.066793,-0.06458364,
0.003),(0.066793,0.02502556,0.),(0.066793,0.02502556,0.003)));
#29=TESSELLATED_SHELL('Body5',(#27),$);
#30=SHAPE_DEFINITION_REPRESENTATION(#42,#31);
#31=SHAPE_REPRESENTATION('Body5',(#32),#37);
#32=AXIS2_PLACEMENT_3D('',#35,#33,#34);
#33=DIRECTION('',(0.,0.,1.));
#34=DIRECTION('',(1.,0.,0.));
#35=CARTESIAN_POINT('',(0.,0.,0.));
#36=MECHANICAL_DESIGN_GEOMETRIC_PRESENTATION_REPRESENTATION('',(#12,#13),
#37);
#37=(
GEOMETRIC_REPRESENTATION_CONTEXT(3)
GLOBAL_UNCERTAINTY_ASSIGNED_CONTEXT((#38))
GLOBAL_UNIT_ASSIGNED_CONTEXT((#41,#40,#39))
REPRESENTATION_CONTEXT('Body5','TOP_LEVEL_ASSEMBLY_PART')
);
#38=UNCERTAINTY_MEASURE_WITH_UNIT(LENGTH_MEASURE(1.E-8),#41,
'DISTANCE_ACCURACY_VALUE','Maximum Tolerance applied to model');
#39=(
NAMED_UNIT(*)
SI_UNIT($,.STERADIAN.)
SOLID_ANGLE_UNIT()
);
#40=(
NAMED_UNIT(*)
PLANE_ANGLE_UNIT()
SI_UNIT($,.RADIAN.)
);
#41=(
LENGTH_UNIT()
NAMED_UNIT(*)
SI_UNIT($,.METRE.)
);
#42=PRODUCT_DEFINITION_SHAPE('','',#43);
#43=PRODUCT_DEFINITION('','',#45,#44);
#44=PRODUCT_DEFINITION_CONTEXT('',#51,'design');
#45=PRODUCT_DEFINITION_FORMATION_WITH_SPECIFIED_SOURCE('','',#47,
 .NOT_KNOWN.);
#46=PRODUCT_RELATED_PRODUCT_CATEGORY('','',(#47));
#47=PRODUCT('Body5','Body5','Body5',(#49));
#48=PRODUCT_CATEGORY('','');
#49=PRODUCT_CONTEXT('',#51,'mechanical');
#50=APPLICATION_PROTOCOL_DEFINITION('international standard',
'ap242_managed_model_based_3d_engineering',2020,#51);
#51=APPLICATION_CONTEXT('managed model based 3d engineering');
ENDSEC;
END-ISO-10303-21;
